<?xml version="1.0" encoding="UTF-8"?>
<svg version="1.1" xmlns="http://www.w3.org/2000/svg" width="500" height="500">
<path d="M0 0 C0.84048889 -0.00139984 1.68097778 -0.00279968 2.54693604 -0.00424194 C16.51133074 0.01485098 29.31670601 1.44997417 42.75 5.4375 C44.20889858 5.8282821 45.66850757 6.21642434 47.12890625 6.6015625 C65.45836682 11.6501236 81.56407498 21.47394571 95.8046875 33.88671875 C97.59280535 35.43531418 99.4185482 36.94351125 101.3046875 38.37109375 C104.28238835 40.88739367 106.62977972 43.74124067 109 46.8125 C109.47526123 47.42464355 109.95052246 48.03678711 110.44018555 48.66748047 C115.2937901 55.00982631 119.65556821 61.58395209 123.75 68.4375 C124.29269531 69.32953125 124.83539063 70.2215625 125.39453125 71.140625 C133.9516951 86.58416082 141.11421891 109.03269653 136.11499023 126.67895508 C134.43063557 131.40511599 132.63093989 134.24650498 128.75 137.4375 C128.18410156 137.90414062 127.61820312 138.37078125 127.03515625 138.8515625 C122.25693259 142.34973033 118.14535044 143.21642873 112.24609375 142.921875 C109.75 142.4375 109.75 142.4375 106.625 140.3125 C104.20187913 136.597048 103.27502661 133.9553697 104.11328125 129.51171875 C104.47170745 128.01508415 104.8325923 126.51903722 105.1953125 125.0234375 C107.15105815 115.90580635 106.67426929 107.27887814 105.52148438 98.12719727 C104.71334086 91.6111918 104.02662156 84.9904576 104.75 78.4375 C106.75 76.4375 106.75 76.4375 109.1875 76.125 C111.75 76.4375 111.75 76.4375 113.35083008 77.64355469 C115.13999635 79.93753371 115.34519177 81.57422425 115.69921875 84.453125 C115.88834839 85.94815552 115.88834839 85.94815552 116.08129883 87.47338867 C116.25761841 89.06437378 116.25761841 89.06437378 116.4375 90.6875 C116.56342529 91.77200439 116.68935059 92.85650879 116.8190918 93.97387695 C118.12842335 105.88374114 118.28730753 117.07061789 116.1875 128.92578125 C115.69280006 131.34096613 115.69280006 131.34096613 115.75 133.4375 C120.82167402 131.36272427 123.10667394 129.2346473 125.75 124.4375 C130.77284857 109.13610702 124.46123667 89.47506268 117.75 75.4375 C110.69631804 62.00481091 101.94800121 48.71365441 89.75 39.4375 C89.19570313 38.98503906 88.64140625 38.53257812 88.0703125 38.06640625 C57.18876866 13.61299493 15.00880027 4.82534728 -23.63671875 9.22924805 C-33.46546628 10.64444861 -42.90909138 14.17658841 -52.25 17.4375 C-52.2185791 18.54206543 -52.2185791 18.54206543 -52.18652344 19.66894531 C-52.10332856 23.00832442 -52.05132843 26.34748549 -52 29.6875 C-51.96648437 30.84636719 -51.93296875 32.00523437 -51.8984375 33.19921875 C-51.87910156 34.87177734 -51.87910156 34.87177734 -51.859375 36.578125 C-51.8279541 38.11774902 -51.8279541 38.11774902 -51.79589844 39.68847656 C-52.36658059 43.14325134 -53.51172785 44.3257709 -56.25 46.4375 C-59.26811422 46.25996387 -60.08735215 45.60014785 -62.25 43.4375 C-63.54854211 39.43366182 -63.11770253 37.17290507 -61.25 33.4375 C-60.92 33.1075 -60.59 32.7775 -60.25 32.4375 C-60.08333333 29.9375 -60.08333333 29.9375 -60.25 27.4375 C-61.35970289 26.13023694 -61.35970289 26.13023694 -64.125 26 C-80.91534856 26.44095865 -99.45908488 48.10496954 -110.16796875 59.01953125 C-117.26017159 66.51296757 -122.64448435 73.76815314 -122.51367188 84.45117188 C-122.48853516 85.25103516 -122.46339844 86.05089844 -122.4375 86.875 C-122.42396484 87.70193359 -122.41042969 88.52886719 -122.39648438 89.38085938 C-122.36146992 91.4000264 -122.30767562 93.41885318 -122.25 95.4375 C-116.37277197 97.5710888 -116.37277197 97.5710888 -110.25 97.4375 C-105.8993614 94.68372501 -102.2096384 91.67861386 -100.875 86.5625 C-100.66875 85.53125 -100.4625 84.5 -100.25 83.4375 C-99.59 83.1075 -98.93 82.7775 -98.25 82.4375 C-97.56068656 80.08842125 -97.56068656 80.08842125 -97.125 77.375 C-96.95742187 76.45589844 -96.78984375 75.53679687 -96.6171875 74.58984375 C-96.43542969 73.52443359 -96.43542969 73.52443359 -96.25 72.4375 C-94.93 72.4375 -93.61 72.4375 -92.25 72.4375 C-92.0025 71.65375 -91.755 70.87 -91.5 70.0625 C-90.09610901 67.11432892 -89.24324263 66.5350223 -86.25 65.4375 C-86.745 63.4575 -86.745 63.4575 -87.25 61.4375 C-95.23184073 63.94607852 -100.58990833 71.6329652 -104.51953125 78.73046875 C-105.46397738 80.61602375 -106.36193465 82.52474385 -107.25 84.4375 C-111.80737263 83.99929109 -114.82653445 83.58708831 -118.25 80.4375 C-114.42767443 69.47082768 -104.14815176 57.59390165 -94.0625 51.9375 C-89.9338207 49.59818867 -87.99604623 46.4930809 -85.671875 42.42578125 C-84.0493778 40.15695961 -82.8373659 39.41156716 -80.25 38.4375 C-77.625 38.125 -77.625 38.125 -75.25 38.4375 C-73.25 41.4375 -73.25 41.4375 -73.375 43.75 C-74.46831003 47.10802366 -76.1977087 49.57673032 -78.25 52.4375 C-80.43490007 55.11392489 -80.43490007 55.11392489 -80.25 57.4375 C-76.60503155 56.17667581 -76.60503155 56.17667581 -73.6875 53.75 C-73.213125 53.316875 -72.73875 52.88375 -72.25 52.4375 C-69.27602384 52.70786147 -68.39553974 53.29196026 -66.25 55.4375 C-66.72952956 61.29735121 -70.13943975 64.54816782 -74.25 68.4375 C-77.10704072 70.64627197 -80.01159037 72.73493647 -82.9921875 74.7734375 C-85.34094414 76.24049491 -85.34094414 76.24049491 -86.25 78.4375 C-78.70952096 79.51609862 -78.70952096 79.51609862 -71.25 78.4375 C-71.25 77.7775 -71.25 77.1175 -71.25 76.4375 C-70.39728516 76.0353125 -70.39728516 76.0353125 -69.52734375 75.625 C-62.3698322 71.99247327 -56.51783932 67.36344219 -53.6875 59.625 C-52.25 56.4375 -52.25 56.4375 -49.375 54.5 C-46.37076311 53.47855946 -44.37116921 53.34756801 -41.25 53.4375 C-41.35828125 51.82294922 -41.35828125 51.82294922 -41.46875 50.17578125 C-41.71840167 46.35189129 -41.92528347 42.52669257 -42.12109375 38.69970703 C-42.23725956 36.66108499 -42.39720233 34.62507125 -42.5625 32.58984375 C-43.00697382 24.52449594 -43.00697382 24.52449594 -40.96875 21.59765625 C-33.86447726 16.02726058 -25.39252263 16.29420668 -16.8203125 16.44140625 C-13.30413474 16.47406671 -9.81596297 16.33899518 -6.3046875 16.15234375 C-5.2741626 16.09763916 -4.2436377 16.04293457 -3.18188477 15.98657227 C-1.12719054 15.87191335 0.92705772 15.74891109 2.98071289 15.61694336 C3.92938232 15.56546143 4.87805176 15.51397949 5.85546875 15.4609375 C6.70262451 15.40856934 7.54978027 15.35620117 8.42260742 15.30224609 C11.00198593 15.45214389 12.543601 16.133184 14.75 17.4375 C15.11030254 22.84203816 15.11030254 22.84203816 13.7265625 25.12890625 C10.64987649 27.16584264 7.49091999 26.69968585 3.9375 26.5625 C2.32559721 26.5320962 0.71360328 26.50627298 -0.8984375 26.484375 C-1.75791992 26.47212891 -2.61740234 26.45988281 -3.50292969 26.44726562 C-8.40297984 26.42984632 -13.29226159 26.6111763 -18.1875 26.8125 C-19.14052002 26.84359863 -20.09354004 26.87469727 -21.07543945 26.90673828 C-21.96706787 26.94524902 -22.85869629 26.98375977 -23.77734375 27.0234375 C-24.56874756 27.0548584 -25.36015137 27.0862793 -26.17553711 27.11865234 C-28.55289594 27.33475465 -28.55289594 27.33475465 -31.25 29.4375 C-31.46854005 32.3720062 -31.46854005 32.3720062 -31.12109375 35.80859375 C-29.84924447 58.49674372 -29.84924447 58.49674372 -33.5234375 63.5546875 C-36.39188997 66.44723246 -39.74566748 68.39364599 -43.25 70.4375 C-45.10712244 71.95042547 -46.94158046 73.49168302 -48.75 75.0625 C-69.66383136 91.8904164 -69.66383136 91.8904164 -78.8125 91.75 C-79.90691406 91.74613281 -81.00132812 91.74226563 -82.12890625 91.73828125 C-85.22413512 91.43999261 -87.42618547 90.68315457 -90.25 89.4375 C-90.91 89.4375 -91.57 89.4375 -92.25 89.4375 C-92.48203125 90.12585938 -92.7140625 90.81421875 -92.953125 91.5234375 C-94.53036319 95.06747272 -96.65384859 98.00412406 -99 101.0625 C-99.41765625 101.63484375 -99.8353125 102.2071875 -100.265625 102.796875 C-103.71051268 107.31303873 -107.14545133 109.74181607 -112.8125 111.01171875 C-119.2853582 111.31254069 -119.2853582 111.31254069 -122.2265625 108.64453125 C-123.72765309 106.63477726 -125.04335619 104.63496515 -126.25 102.4375 C-129.22 103.4275 -129.22 103.4275 -132.25 104.4375 C-133.114926 117.43541572 -130.7043688 130.05759413 -128.6171875 142.84057617 C-128.25 145.4375 -128.25 145.4375 -128.25 148.4375 C-127.033125 148.19 -125.81625 147.9425 -124.5625 147.6875 C-121.19349587 147.26936119 -120.42854561 147.33873009 -117.3125 149.0625 C-115.03228885 151.68819769 -114.42210614 152.99537714 -114.25 156.4375 C-114.6875 158.75 -114.6875 158.75 -115.25 160.4375 C-106.97541869 164.17440769 -98.13552494 164.87375612 -89.1875 165.5625 C-87.60291992 165.69205078 -87.60291992 165.69205078 -85.98632812 165.82421875 C-83.4079469 166.03422265 -80.82925211 166.23853004 -78.25 166.4375 C-82.21461146 160.71429143 -82.21461146 160.71429143 -88.1640625 157.98046875 C-89.05867188 158.19316406 -89.95328125 158.40585937 -90.875 158.625 C-96.04235559 159.51225199 -96.04235559 159.51225199 -99.375 158.3125 C-101.25 156.4375 -101.25 156.4375 -102.3125 154.0625 C-102.25 151.4375 -102.25 151.4375 -100.8125 148.875 C-96.31327214 144.59524667 -91.76019174 142.24627991 -85.5 141.875 C-82.30623108 142.04970189 -81.52982482 142.18965516 -79.0625 144.375 C-78.464375 145.385625 -77.86625 146.39625 -77.25 147.4375 C-72.20170561 155.59365062 -65.81326683 165.38539357 -56.25 168.4375 C-53.44909402 168.62739193 -51.02217913 168.62640488 -48.25 168.4375 C-46.82107422 168.39109375 -46.82107422 168.39109375 -45.36328125 168.34375 C-44.37714844 168.2921875 -43.39101562 168.240625 -42.375 168.1875 C-41.44945312 168.14109375 -40.52390625 168.0946875 -39.5703125 168.046875 C-38.80460937 167.84578125 -38.03890625 167.6446875 -37.25 167.4375 C-36.15414216 165.54283424 -36.15414216 165.54283424 -35.25 163.4375 C-33.359375 162.12109375 -33.359375 162.12109375 -31 160.875 C-25.51189659 157.7824337 -20.78353288 154.00933977 -15.98535156 149.95678711 C-14.46540955 148.70881441 -12.86241103 147.56346193 -11.25 146.4375 C-10.26 146.7675 -9.27 147.0975 -8.25 147.4375 C-10.6467892 151.93878703 -13.71937869 155.20851636 -17.3125 158.75 C-17.85455078 159.29978516 -18.39660156 159.84957031 -18.95507812 160.41601562 C-22.99654503 164.4375 -22.99654503 164.4375 -25.25 164.4375 C-25.39695312 165.05238281 -25.54390625 165.66726563 -25.6953125 166.30078125 C-25.91960937 167.10902344 -26.14390625 167.91726563 -26.375 168.75 C-26.58382812 169.55050781 -26.79265625 170.35101563 -27.0078125 171.17578125 C-28.81736359 174.47052994 -30.7716823 175.0972308 -34.25 176.4375 C-37.02048494 177.16181658 -39.79982369 177.66502912 -42.625 178.125 C-43.34171875 178.25455078 -44.0584375 178.38410156 -44.796875 178.51757812 C-55.08897888 180.27318068 -62.25112082 179.16405948 -71.25 173.4375 C-71.58 173.7675 -71.91 174.0975 -72.25 174.4375 C-76.91524233 174.66973754 -81.58156709 174.53447042 -86.25 174.4375 C-87.39855469 174.42074219 -88.54710937 174.40398437 -89.73046875 174.38671875 C-104.60102374 173.78778961 -119.97268175 169.310666 -130.5625 158.3125 C-140.76694297 144.92285518 -142.45111131 128.43548727 -142.5625 112.125 C-142.56813965 111.34302246 -142.5737793 110.56104492 -142.57958984 109.75537109 C-142.50282156 103.77655289 -141.79688786 99.21642103 -137.75 94.5625 C-135.25 92.4375 -135.25 92.4375 -133.25 92.4375 C-133.1571875 90.6121875 -133.1571875 90.6121875 -133.0625 88.75 C-130.49854584 66.64455737 -111.93638505 47.71547602 -95.25 34.4375 C-84.875 26.4375 -84.875 26.4375 -82.25 26.4375 C-82.25 25.7775 -82.25 25.1175 -82.25 24.4375 C-81.26 24.4375 -80.27 24.4375 -79.25 24.4375 C-79.25 23.7775 -79.25 23.1175 -79.25 22.4375 C-75.63524423 20.58809007 -72.03925458 18.89490561 -68.25 17.4375 C-67.1053125 16.880625 -67.1053125 16.880625 -65.9375 16.3125 C-62.25640056 15.11400251 -59.11343193 15.30653621 -55.25 15.4375 C-55.023125 14.839375 -54.79625 14.24125 -54.5625 13.625 C-51.39803713 8.35089521 -44.67096878 7.09056471 -39.125 5.375 C-38.33351563 5.11912109 -37.54203125 4.86324219 -36.7265625 4.59960938 C-24.46930009 0.75438754 -12.75376606 -0.00202981 0 0 Z " fill="#E2E2E1" transform="translate(256.25,138.5625)"/>
<path d="M0 0 C0.99 0.99 0.99 0.99 2 2 C4.02713674 2.46072107 4.02713674 2.46072107 6.3515625 2.6328125 C7.62773437 2.75849609 7.62773437 2.75849609 8.9296875 2.88671875 C9.81914062 2.96535156 10.70859375 3.04398438 11.625 3.125 C12.5221875 3.21136719 13.419375 3.29773438 14.34375 3.38671875 C16.5618748 3.5990924 18.78045069 3.80317085 21 4 C21.67260351 5.76858691 22.33788395 7.53996016 23 9.3125 C23.37125 10.29863281 23.7425 11.28476563 24.125 12.30078125 C25 15 25 15 25 18 C25.66 18 26.32 18 27 18 C27 18.66 27 19.32 27 20 C28.58941406 19.98259766 28.58941406 19.98259766 30.2109375 19.96484375 C31.59895658 19.95546524 32.98697755 19.94636511 34.375 19.9375 C35.07367188 19.92912109 35.77234375 19.92074219 36.4921875 19.91210938 C41.7734375 19.88671875 41.7734375 19.88671875 44 21 C44 21.66 44 22.32 44 23 C44.556875 23.20625 45.11375 23.4125 45.6875 23.625 C49.38778034 25.82516669 52.0683436 29.1366872 54 33 C54.14977039 35.24655587 54.22150174 37.49863768 54.25 39.75 C54.28867187 41.56757813 54.28867187 41.56757813 54.328125 43.421875 C53.90266714 48.06139165 52.40804212 51.15538617 49.6015625 54.83203125 C47.51332742 56.35491488 45.93502336 56.43962472 43.375 56.6875 C38.15881525 57.7137612 34.25921996 59.30363465 30.390625 63.0234375 C27.40048368 69.42368381 30.70510301 76.92904862 32.39746094 83.45654297 C34.7663772 93.45628754 35.33572811 103.88713804 30 113 C20.7099102 126.31201892 7.82020429 127.99957454 -7.09570312 131.4909668 C-9.06619419 131.94931926 -9.06619419 131.94931926 -11 133 C-10.24976563 133.54527344 -9.49953125 134.09054687 -8.7265625 134.65234375 C-3.58976194 138.43701419 1.37055506 142.225662 6.0625 146.5625 C18.82296849 158.37379376 18.82296849 158.37379376 35 163.375 C39.32501679 163.12263484 43.97532817 162.64685696 48 161 C48.33 160.01 48.66 159.02 49 158 C50.423125 157.9690625 50.423125 157.9690625 51.875 157.9375 C60.26519472 156.71956851 67.12575847 149.20773975 72.89453125 143.50390625 C75.49059203 141.64957712 76.87398341 141.54013971 80 142 C80.66 142.66 81.32 143.32 82 144 C81.63394696 150.5889548 76.49242163 154.67069201 72 159 C68.82380801 161.63020197 65.51850835 163.8537099 62 166 C60.42992187 166.96486328 60.42992187 166.96486328 58.828125 167.94921875 C52.20226732 171.78319509 46.72056659 174.12199541 39 174 C39.0825 174.9075 39.165 175.815 39.25 176.75 C39 180 39 180 37.25 182.4375 C35 184 35 184 32.875 183.875 C31 183 31 183 29 181 C28.875 177.375 28.875 177.375 29 174 C27.72769531 173.65195312 27.72769531 173.65195312 26.4296875 173.296875 C22.45743066 171.7948371 19.50596056 169.76993022 16.125 167.25 C15.50496094 166.79608887 14.88492188 166.34217773 14.24609375 165.87451172 C13.02648606 164.97994098 11.80926003 164.08211189 10.59472656 163.18066406 C9.34009157 162.25178855 8.07436609 161.33789176 6.8046875 160.4296875 C1.64529878 156.69973981 -3.12371662 152.51266635 -7.90234375 148.31298828 C-10.6294292 145.93602244 -13.32361075 143.7197126 -16.3671875 141.7578125 C-19 140 -19 140 -20 138 C-25.2584002 138.67415387 -30.02638346 140.24265549 -35 142 C-34.505 142.61875 -34.01 143.2375 -33.5 143.875 C-32 146 -32 146 -32 148 C-31.12299438 148.40617554 -31.12299438 148.40617554 -30.22827148 148.82055664 C-28.01337836 149.99291872 -26.27119424 151.27149861 -24.34765625 152.87109375 C-23.65986084 153.44021484 -22.97206543 154.00933594 -22.26342773 154.59570312 C-21.17396851 155.50739258 -21.17396851 155.50739258 -20.0625 156.4375 C-19.30976807 157.06205078 -18.55703613 157.68660156 -17.78149414 158.33007812 C-12.60448583 162.63355882 -7.46351729 166.97917232 -2.35107422 171.35913086 C1.19696114 174.38104684 4.84710554 177.17082601 8.70703125 179.78125 C9.13371094 180.1834375 9.56039062 180.585625 10 181 C10 181.99 10 182.98 10 184 C8.37109375 184.765625 8.37109375 184.765625 6 185 C3.82545517 183.66652385 2.01364589 182.36091153 0.0625 180.75 C-0.50742676 180.29616943 -1.07735352 179.84233887 -1.66455078 179.37475586 C-6.18040625 175.75177151 -10.57625093 171.98467751 -14.95361328 168.19628906 C-19.84544313 164.01090875 -25.02298347 160.26009792 -30.32763672 156.61547852 C-31.93713105 155.48075312 -33.47632899 154.24759784 -35 153 C-35 152.01 -35 151.02 -35 150 C-36.051875 150.12375 -37.10375 150.2475 -38.1875 150.375 C-42 150 -42 150 -44.5625 147.3125 C-45.14257812 146.49845703 -45.14257812 146.49845703 -45.734375 145.66796875 C-47.77905197 142.97328644 -50.35571787 141.09082773 -53 139 C-52.42655063 136.13275314 -52.1385485 135.1385485 -50 133 C-47.375 133.375 -47.375 133.375 -45 134 C-45 134.66 -45 135.32 -45 136 C-44.54753906 135.67128906 -44.09507812 135.34257812 -43.62890625 135.00390625 C-38.39080476 131.35010767 -32.92966275 128.21110252 -27.3125 125.1875 C-26.58812744 124.79054932 -25.86375488 124.39359863 -25.11743164 123.98461914 C-19.60363401 121.06049185 -14.77484303 120.07507933 -8.5625 119.6875 C0.70439735 118.78752818 10.55285639 116.7850275 18 111 C21.39621973 106.75926574 22.58777867 102.03968113 22.328125 96.6796875 C21.3618758 88.78865238 19.71600561 81.01426529 17.3125 73.4375 C15.22205075 66.57856653 15.22205075 66.57856653 16 63 C22.5508577 53.19356454 30.7288215 48.53601516 42 46 C42 41.71 42 37.42 42 33 C37.13554549 32.0271091 34.24433646 32.25328177 29.5 33.0390625 C23.81312636 32.9502051 19.1246735 27.96158006 15.09375 24.3203125 C10.60939718 19.35071255 8.72898887 13.63388126 9 7 C4.92220361 5.86727878 2.41896113 5.46976793 -1.58203125 6.96484375 C-10.0100495 11.93067759 -11.70484137 19.12160858 -14 28 C-17.72956999 40.19347997 -17.72956999 40.19347997 -21.625 43.29296875 C-23.27198234 44.96682558 -23.27198234 44.96682558 -22.96875 47.55859375 C-22.65666306 49.47532772 -22.34416414 51.39199465 -22.03125 53.30859375 C-22 56 -22 56 -23.2890625 58.3125 C-25 60 -25 60 -27.875 60.5625 C-32.09515421 59.80287224 -33.45613501 58.41604728 -36 55 C-37.44827586 48.89655172 -37.44827586 48.89655172 -36 46 C-42.6975389 46.22802162 -46.9120428 47.56275725 -52.25 51.5625 C-52.91475342 52.03921143 -53.57950684 52.51592285 -54.2644043 53.00708008 C-56.52916276 54.646489 -58.7666932 56.31800777 -61 58 C-61.85867676 58.64614258 -62.71735352 59.29228516 -63.60205078 59.95800781 C-70.95232805 65.50872988 -78.2825954 71.08764745 -85.53515625 76.765625 C-94.16387821 83.36475761 -94.16387821 83.36475761 -100 83 C-101.9375 82.0625 -101.9375 82.0625 -103 80 C-103.23550974 77.28093306 -103.13479035 74.74073708 -103 72 C-102.09121094 71.5978125 -102.09121094 71.5978125 -101.1640625 71.1875 C-95.32294371 68.45565367 -90.54630764 65.25405945 -85.59765625 61.13671875 C-82.7942194 58.83073386 -79.92252006 56.6528342 -77 54.5 C-76.0925 53.8296875 -75.185 53.159375 -74.25 52.46875 C-72 51 -72 51 -70 51 C-70 50.34 -70 49.68 -70 49 C-69.00613281 48.45730469 -68.01226562 47.91460937 -66.98828125 47.35546875 C-62.8207503 44.97417242 -59.02073753 42.19219585 -55.1875 39.3125 C-53.86946845 38.32811508 -52.55050165 37.34498079 -51.23046875 36.36328125 C-50.65707764 35.93313721 -50.08368652 35.50299316 -49.49291992 35.05981445 C-46.47356559 32.91639383 -44.81696833 32.97233035 -41.1875 33.375 C-40.29289062 33.47167969 -39.39828125 33.56835938 -38.4765625 33.66796875 C-36 34 -36 34 -33.0625 34.6875 C-30.69513761 35.28287629 -30.69513761 35.28287629 -28 33 C-27.23930839 30.95055862 -27.23930839 30.95055862 -26.875 28.625 C-26.72804688 27.85414063 -26.58109375 27.08328125 -26.4296875 26.2890625 C-26.28789062 25.53367188 -26.14609375 24.77828125 -26 24 C-25.67632921 22.66428816 -25.34617896 21.33005602 -25 20 C-28.79342852 17.47104765 -30.47523369 17.67421683 -35 18 C-38.21131344 18.68493049 -41.34923217 19.57915948 -44.5 20.5 C-50.08536237 22.13237289 -55.10782567 23.57118016 -61 23 C-63.5 20.75 -63.5 20.75 -65 18 C-65.0625 15.875 -65.0625 15.875 -64 14 C-60.20034861 10.98262978 -56.72335686 10.59041961 -52 10 C-50.32689291 9.34966556 -48.66117942 8.68022433 -47 8 C-44.67811057 7.21528737 -42.34361473 6.46722692 -40 5.75 C-38.80375 5.37359375 -37.6075 4.9971875 -36.375 4.609375 C-32.63136004 3.93344001 -31.32144225 4.31980643 -28 6 C-26.570428 6.40417219 -25.13297118 6.78200684 -23.6875 7.125 C-22.470625 7.41375 -21.25375 7.7025 -20 8 C-19.93683594 7.38511719 -19.87367188 6.77023438 -19.80859375 6.13671875 C-19.12622756 1.63310187 -18.74739288 -0.41162688 -15.0625 -3.3125 C-9.83866714 -4.98765315 -4.66260826 -2.32743795 0 0 Z " fill="#E6E7E5" transform="translate(300,163)"/>
<path d="M0 0 C2.94199978 -0.41322745 5.13717086 -0.52984588 7.72705078 1.06054688 C9.56997385 2.56375349 11.32252306 4.12878638 13.0625 5.75 C14.26120038 6.82870131 15.46040987 7.90683718 16.66015625 8.984375 C17.23169434 9.50757324 17.80323242 10.03077148 18.39208984 10.56982422 C19.744062 11.77235275 21.16810196 12.89315142 22.60546875 13.9921875 C25.57263047 16.48015018 27.8961358 19.32493438 30.25 22.375 C30.72526123 22.98714355 31.20052246 23.59928711 31.69018555 24.22998047 C36.5437901 30.57232631 40.90556821 37.14645209 45 44 C45.54269531 44.89203125 46.08539063 45.7840625 46.64453125 46.703125 C55.2016951 62.14666082 62.36421891 84.59519653 57.36499023 102.24145508 C55.68063557 106.96761599 53.88093989 109.80900498 50 113 C49.43410156 113.46664062 48.86820312 113.93328125 48.28515625 114.4140625 C43.50693259 117.91223033 39.39535044 118.77892873 33.49609375 118.484375 C31 118 31 118 27.875 115.875 C25.45187913 112.159548 24.52502661 109.5178697 25.36328125 105.07421875 C25.72170745 103.57758415 26.0825923 102.08153722 26.4453125 100.5859375 C28.40105815 91.46830635 27.92426929 82.84137814 26.77148438 73.68969727 C25.96334086 67.1736918 25.27662156 60.5529576 26 54 C28 52 28 52 30.4375 51.6875 C33 52 33 52 34.60083008 53.20605469 C36.38999635 55.50003371 36.59519177 57.13672425 36.94921875 60.015625 C37.07530518 61.01231201 37.2013916 62.00899902 37.33129883 63.03588867 C37.44884521 64.09654541 37.5663916 65.15720215 37.6875 66.25 C37.81342529 67.33450439 37.93935059 68.41900879 38.0690918 69.53637695 C39.37842335 81.44624114 39.53730753 92.63311789 37.4375 104.48828125 C36.94280006 106.90346613 36.94280006 106.90346613 37 109 C42.07167402 106.92522427 44.35667394 104.7971473 47 100 C52.02284857 84.69860702 45.71123667 65.03756268 39 51 C30.89299317 35.56141024 20.93000817 22.34764597 6.875 11.9375 C3.59736526 9.50796919 0.7131494 7.05229308 -2 4 C-2 3.34 -2 2.68 -2 2 C-1.34 2 -0.68 2 0 2 C0 1.34 0 0.68 0 0 Z " fill="#E2E2E2" transform="translate(335,163)"/>
<path d="M0 0 C0.33 0 0.66 0 1 0 C1.66 5.28 2.32 10.56 3 16 C5.64 15.67 8.28 15.34 11 15 C14.27536913 16.81190633 15.6358253 17.95950084 16.875 21.5 C16.99669295 23.93385908 16.76681968 25.69954095 16 28 C24.27458131 31.73690769 33.11447506 32.43625612 42.0625 33.125 C43.11888672 33.21136719 44.17527344 33.29773438 45.26367188 33.38671875 C47.8420531 33.59672265 50.42074789 33.80103004 53 34 C49.03538854 28.27679143 49.03538854 28.27679143 43.0859375 25.54296875 C41.74402344 25.86201172 41.74402344 25.86201172 40.375 26.1875 C35.20764441 27.07475199 35.20764441 27.07475199 31.875 25.875 C30 24 30 24 28.9375 21.625 C29 19 29 19 30.4375 16.4375 C34.93672786 12.15774667 39.48980826 9.80877991 45.75 9.4375 C48.94376892 9.61220189 49.72017518 9.75215516 52.1875 11.9375 C52.785625 12.948125 53.38375 13.95875 54 15 C59.04829439 23.15615062 65.43673317 32.94789357 75 36 C77.80090598 36.18989193 80.22782087 36.18890488 83 36 C83.95261719 35.9690625 84.90523438 35.938125 85.88671875 35.90625 C86.87285156 35.8546875 87.85898438 35.803125 88.875 35.75 C89.80054688 35.70359375 90.72609375 35.6571875 91.6796875 35.609375 C92.82824219 35.30773437 92.82824219 35.30773437 94 35 C95.09585784 33.10533424 95.09585784 33.10533424 96 31 C97.890625 29.68359375 97.890625 29.68359375 100.25 28.4375 C105.73810341 25.3449337 110.46646712 21.57183977 115.26464844 17.51928711 C116.78459045 16.27131441 118.38758897 15.12596193 120 14 C120.99 14.33 121.98 14.66 123 15 C120.6032108 19.50128703 117.53062131 22.77101636 113.9375 26.3125 C113.39544922 26.86228516 112.85339844 27.41207031 112.29492188 27.97851562 C108.25345497 32 108.25345497 32 106 32 C105.85304688 32.61488281 105.70609375 33.22976563 105.5546875 33.86328125 C105.33039063 34.67152344 105.10609375 35.47976563 104.875 36.3125 C104.66617188 37.11300781 104.45734375 37.91351563 104.2421875 38.73828125 C102.43263641 42.03302994 100.4783177 42.6597308 97 44 C94.22951506 44.72431658 91.45017631 45.22752912 88.625 45.6875 C87.90828125 45.81705078 87.1915625 45.94660156 86.453125 46.08007812 C76.16102112 47.83568068 68.99887918 46.72655948 60 41 C59.67 41.33 59.34 41.66 59 42 C54.33475767 42.23223754 49.66843291 42.09697042 45 42 C43.85144531 41.98324219 42.70289063 41.96648437 41.51953125 41.94921875 C27.23364843 41.37383797 12.59031577 37.27794065 2.06640625 27.13671875 C-0.4623917 24.30470761 -2.54256441 21.52961888 -4 18 C-3.625 14.75 -3.625 14.75 -3 12 C-1.68 11.67 -0.36 11.34 1 11 C0.835 10.484375 0.67 9.96875 0.5 9.4375 C-0.15049 6.26636124 -0.0620734 3.22781666 0 0 Z " fill="#E5E5E4" transform="translate(125,271)"/>
<path d="M0 0 C3 2.375 3 2.375 4 3.375 C4.3125 6.25 4.3125 6.25 4 9.375 C1.23567372 11.98395615 -1.24858287 12.90293351 -4.9296875 13.65625 C-6.36054688 13.95789063 -6.36054688 13.95789063 -7.8203125 14.265625 C-8.82835937 14.46671875 -9.83640625 14.6678125 -10.875 14.875 C-12.95583426 15.30157102 -15.0365638 15.72865315 -17.1171875 16.15625 C-18.12620117 16.36121094 -19.13521484 16.56617188 -20.17480469 16.77734375 C-22.59537121 17.28940276 -24.98719329 17.85244015 -27.3828125 18.46875 C-34.26428202 20.19283308 -37.79993874 20.91789215 -44 17.375 C-47.3060486 15.95005108 -47.3060486 15.95005108 -51 16.375 C-53.55746976 17.96272286 -55.71847199 19.80732858 -57.98828125 21.78515625 C-61.57678746 24.87099233 -65.32515889 27.6819571 -69.125 30.5 C-70.44025916 31.48156318 -71.75536607 32.46333041 -73.0703125 33.4453125 C-73.71774414 33.92000977 -74.36517578 34.39470703 -75.03222656 34.88378906 C-76.38350372 35.90780902 -77.70245456 36.97547979 -78.99121094 38.07714844 C-82.94071718 41.36358482 -85.56126596 43.11071754 -90.96435547 42.66210938 C-91.63611816 42.56736328 -92.30788086 42.47261719 -93 42.375 C-93.69625488 42.29572266 -94.39250977 42.21644531 -95.10986328 42.13476562 C-97.27430803 41.8567545 -99.41330127 41.50232539 -101.5625 41.125 C-102.27857422 41.01542969 -102.99464844 40.90585937 -103.73242188 40.79296875 C-108.89019155 39.90127063 -112.64647879 38.30901622 -117 35.375 C-118.125 32.8125 -118.125 32.8125 -118 30.375 C-116.72265625 28.75 -116.72265625 28.75 -115 27.375 C-108.13665265 26.56070455 -102.14037941 28.16281091 -95.58520508 30.03930664 C-90.76876102 31.39846671 -90.76876102 31.39846671 -86 30.375 C-86 29.715 -86 29.055 -86 28.375 C-83.87100526 26.51810992 -81.7377699 24.77945611 -79.5 23.0625 C-78.8608667 22.56556641 -78.2217334 22.06863281 -77.56323242 21.55664062 C-73.19577924 18.19595431 -68.71838276 15.22383487 -64 12.375 C-63.54496094 11.91609375 -63.08992188 11.4571875 -62.62109375 10.984375 C-58.08224906 6.47834124 -52.51482103 2.45483559 -46.0625 2.25 C-43.15060916 3.31967419 -41.39191214 4.46147029 -39 6.375 C-34.98586031 7.59431206 -32.63890877 7.205563 -28.75 5.75 C-27.7084375 5.38648438 -26.666875 5.02296875 -25.59375 4.6484375 C-23.69948219 3.97720782 -21.80549436 3.30515645 -19.9140625 2.62597656 C-5.1584018 -2.5792009 -5.1584018 -2.5792009 0 0 Z " fill="#E4E4E3" transform="translate(301,225.625)"/>
<path d="M0 0 C3.46684545 3.09205135 5.06500876 6.61877379 6.3125 11.0625 C6.2539331 14.6936476 6.017281 16.91259417 4.125 20 C1.19017377 21.72041538 -0.35609526 21.79540904 -3.6875 21.0625 C-5.75109415 18.59586012 -7.24233026 15.92726125 -8.6875 13.0625 C-13.27257255 13.54299606 -15.26123104 15.17808912 -18.5 18.375 C-23.75701629 23.2654291 -27.98264203 26.87086942 -35.3125 27.25 C-39.35548537 25.82746811 -40.79745955 24.0778883 -43.23046875 20.65625 C-44.60563011 18.9919486 -44.60563011 18.9919486 -46.453125 18.0390625 C-50.17456814 18.07809862 -52.52170684 20.64806615 -55.25 22.9375 C-61.37017024 27.95672341 -61.37017024 27.95672341 -64.6875 29.0625 C-64.6875 29.7225 -64.6875 30.3825 -64.6875 31.0625 C-66.82520618 32.68927091 -68.9550534 34.20229644 -71.1875 35.6875 C-71.80753906 36.10773438 -72.42757812 36.52796875 -73.06640625 36.9609375 C-74.60267264 38.00087167 -76.14457524 39.03247056 -77.6875 40.0625 C-80.40264034 38.8465169 -81.51373026 38.34204262 -83.125 35.75 C-83.6875 33.0625 -83.6875 33.0625 -82.46484375 30.625 C-75.99593401 21.29839607 -61.48982956 9.66327652 -50.6875 6.0625 C-45.95665203 6.30575282 -41.78828323 7.99987291 -37.4375 9.75 C-33.67623032 11.06644439 -32.32762872 11.439846 -28.6875 10.0625 C-25.67414396 8.51718921 -23.41508798 6.82035598 -20.875 4.5625 C-14.96678389 -0.45190906 -7.48963205 -2.61266234 0 0 Z " fill="#E7E8E7" transform="translate(304.6875,249.9375)"/>
<path d="M0 0 C0.99 0.495 0.99 0.495 2 1 C1.54625 1.7425 1.0925 2.485 0.625 3.25 C-2.2156561 7.82224091 -2.2156561 7.82224091 -3 13 C-13.99339929 16.79482294 -24.37159911 19.89253325 -36 21 C-36.33 22.32 -36.66 23.64 -37 25 C-41.29 25 -45.58 25 -50 25 C-50.33 25.99 -50.66 26.98 -51 28 C-51.66 28 -52.32 28 -53 28 C-53 28.66 -53 29.32 -53 30 C-54.32 30.33 -55.64 30.66 -57 31 C-56.505 31.61875 -56.01 32.2375 -55.5 32.875 C-54 35 -54 35 -54 37 C-53.12299438 37.40617554 -53.12299438 37.40617554 -52.22827148 37.82055664 C-50.01337836 38.99291872 -48.27119424 40.27149861 -46.34765625 41.87109375 C-45.65986084 42.44021484 -44.97206543 43.00933594 -44.26342773 43.59570312 C-43.53712158 44.20349609 -42.81081543 44.81128906 -42.0625 45.4375 C-40.9334021 46.37432617 -40.9334021 46.37432617 -39.78149414 47.33007812 C-34.60448583 51.63355882 -29.46351729 55.97917232 -24.35107422 60.35913086 C-20.80303886 63.38104684 -17.15289446 66.17082601 -13.29296875 68.78125 C-12.86628906 69.1834375 -12.43960938 69.585625 -12 70 C-12 70.99 -12 71.98 -12 73 C-13.62890625 73.765625 -13.62890625 73.765625 -16 74 C-18.17454483 72.66652385 -19.98635411 71.36091153 -21.9375 69.75 C-22.79239014 69.06925415 -22.79239014 69.06925415 -23.66455078 68.37475586 C-28.18040625 64.75177151 -32.57625093 60.98467751 -36.95361328 57.19628906 C-41.84544313 53.01090875 -47.02298347 49.26009792 -52.32763672 45.61547852 C-53.93713105 44.48075312 -55.47632899 43.24759784 -57 42 C-57 41.01 -57 40.02 -57 39 C-58.051875 39.12375 -59.10375 39.2475 -60.1875 39.375 C-64 39 -64 39 -66.5625 36.3125 C-67.14257812 35.49845703 -67.14257812 35.49845703 -67.734375 34.66796875 C-69.77905197 31.97328644 -72.35571787 30.09082773 -75 28 C-74.42655063 25.13275314 -74.1385485 24.1385485 -72 22 C-69.375 22.375 -69.375 22.375 -67 23 C-67 23.66 -67 24.32 -67 25 C-66.54753906 24.67128906 -66.09507812 24.34257812 -65.62890625 24.00390625 C-60.39080476 20.35010767 -54.92966275 17.21110252 -49.3125 14.1875 C-48.58812744 13.79054932 -47.86375488 13.39359863 -47.11743164 12.98461914 C-41.60363401 10.06049185 -36.77484303 9.07507933 -30.5625 8.6875 C-20.63831367 7.72950916 -10.92095527 4.72150246 -1.85546875 0.63671875 C-0.93701172 0.32154297 -0.93701172 0.32154297 0 0 Z " fill="#EBEBEA" transform="translate(322,274)"/>
<path d="M0 0 C5.4 0.48 5.4 0.48 7.875 2.625 C9.4841389 6.02207101 9.52149375 8.28435707 9 12 C4.7471384 17.70143455 -1.43306872 19.62545633 -7.875 22.1875 C-9.47021484 22.84395508 -9.47021484 22.84395508 -11.09765625 23.51367188 C-19.01913471 26.73638516 -25.9670666 29.28526653 -34.625 29.25 C-35.89601563 29.25515625 -37.16703125 29.2603125 -38.4765625 29.265625 C-41.83742651 29.01225609 -44.05239342 28.59617685 -47 27 C-49 24 -49 24 -48.9375 21.9375 C-48 20 -48 20 -45.92578125 18.90234375 C-42.35138121 17.79995869 -38.95346312 17.71150108 -35.25 17.625 C-28.56973697 17.31364452 -23.83027042 16.19341885 -18 13 C-16.66067682 12.37090827 -15.3178624 11.7492242 -13.97265625 11.1328125 C-12.50221299 10.44354222 -11.0321641 9.75343005 -9.5625 9.0625 C-8.8509375 8.73886475 -8.139375 8.41522949 -7.40625 8.08178711 C-4.1449708 6.49866856 -2.26342986 5.49262083 -0.52734375 2.24609375 C-0.35332031 1.50488281 -0.17929687 0.76367188 0 0 Z " fill="#F3F4F4" transform="translate(373,282)"/>
<path d="M0 0 C0.33 0 0.66 0 1 0 C1.66 5.28 2.32 10.56 3 16 C5.64 15.67 8.28 15.34 11 15 C14.27536913 16.81190633 15.6358253 17.95950084 16.875 21.5 C16.99669295 23.93385908 16.76681968 25.69954095 16 28 C24.27458131 31.73690769 33.11447506 32.43625612 42.0625 33.125 C43.11888672 33.21136719 44.17527344 33.29773438 45.26367188 33.38671875 C47.8420531 33.59672265 50.42074789 33.80103004 53 34 C52.67 33.01 52.34 32.02 52 31 C52.66 31 53.32 31 54 31 C54.2475 31.78375 54.495 32.5675 54.75 33.375 C56.15389099 36.32317108 57.00675737 36.9024777 60 38 C60 38.99 60 39.98 60 41 C59 42 59 42 56.33203125 42.1328125 C52.55315084 42.12442431 48.7780987 42.07847683 45 42 C43.85144531 41.98324219 42.70289063 41.96648437 41.51953125 41.94921875 C27.23364843 41.37383797 12.59031577 37.27794065 2.06640625 27.13671875 C-0.4623917 24.30470761 -2.54256441 21.52961888 -4 18 C-3.625 14.75 -3.625 14.75 -3 12 C-1.68 11.67 -0.36 11.34 1 11 C0.835 10.484375 0.67 9.96875 0.5 9.4375 C-0.15049 6.26636124 -0.0620734 3.22781666 0 0 Z " fill="#DADADA" transform="translate(125,271)"/>
<path d="M0 0 C3.1875 0.5 3.1875 0.5 6.0625 3.0625 C7.87952754 5.56976203 8.24288516 6.81015691 8.8125 10 C8.04434034 14.3016941 6.46825037 16.74449292 3.1875 19.5 C-2.88680277 23.09958682 -9.56626872 25.4645458 -16.12890625 28.03515625 C-18.66898559 29.04526203 -21.11914177 30.09741494 -23.59765625 31.234375 C-26.8125 32.5 -26.8125 32.5 -29.6875 31.6875 C-32.34362818 28.95325041 -32.54482833 27.13762264 -32.8671875 23.4375 C-32.8125 21.5 -32.8125 21.5 -31.8125 18.5 C-26.43947001 15.77257361 -20.90792905 14.38798557 -15.06640625 13.0390625 C-10.25411284 11.85052101 -10.25411284 11.85052101 -6.8125 8.5 C-6.12149447 6.50827818 -5.45347297 4.50838196 -4.8125 2.5 C-2.8125 0.5 -2.8125 0.5 0 0 Z " fill="#E7E7E7" transform="translate(166.8125,247.5)"/>
<path d="M0 0 C0.1546875 0.928125 0.1546875 0.928125 0.3125 1.875 C0.87525373 4.36526484 0.87525373 4.36526484 4 6 C3.45214844 6.30550781 2.90429688 6.61101562 2.33984375 6.92578125 C-10.19643909 14.16217216 -20.89239167 22.53705653 -31.125 32.75 C-31.9305835 33.55397217 -32.73616699 34.35794434 -33.56616211 35.1862793 C-40.63530165 42.3895157 -48.00257712 49.96393928 -48.29296875 60.62109375 C-48.27330671 62.226827 -48.23794109 63.83243877 -48.1875 65.4375 C-48.17396484 66.26443359 -48.16042969 67.09136719 -48.14648438 67.94335938 C-48.11146992 69.9625264 -48.05767562 71.98135318 -48 74 C-50.81771843 69.77342235 -50.42086579 65.55159827 -50.56640625 60.62890625 C-50.64546398 58.74870715 -50.81565188 56.87280927 -51 55 C-51.66 54.67 -52.32 54.34 -53 54 C-53.99 56.475 -53.99 56.475 -55 59 C-56 57 -56 57 -55.46875 55.22265625 C-46.24006426 34.64417555 -28.88453662 17.13775345 -10 5 C-9.34 5 -8.68 5 -8 5 C-8 4.34 -8 3.68 -8 3 C-7.01 3 -6.02 3 -5 3 C-5 2.34 -5 1.68 -5 1 C-2 0 -2 0 0 0 Z " fill="#D5D5D5" transform="translate(182,160)"/>
<path d="M0 0 C0.99 0.33 1.98 0.66 3 1 C0.6032108 5.50128703 -2.46937869 8.77101636 -6.0625 12.3125 C-6.60455078 12.86228516 -7.14660156 13.41207031 -7.70507812 13.97851562 C-11.74654503 18 -11.74654503 18 -14 18 C-14.14695313 18.61488281 -14.29390625 19.22976563 -14.4453125 19.86328125 C-14.78175781 21.07564453 -14.78175781 21.07564453 -15.125 22.3125 C-15.33382812 23.11300781 -15.54265625 23.91351563 -15.7578125 24.73828125 C-17.56736359 28.03302994 -19.5216823 28.6597308 -23 30 C-25.77048494 30.72431658 -28.54982369 31.22752912 -31.375 31.6875 C-32.09171875 31.81705078 -32.8084375 31.94660156 -33.546875 32.08007812 C-41.28692533 33.40035747 -47.84507431 33.8526523 -55 30 C-57.4375 27.8125 -57.4375 27.8125 -59 26 C-58.04287109 25.92652344 -58.04287109 25.92652344 -57.06640625 25.8515625 C-56.24011719 25.77679688 -55.41382813 25.70203125 -54.5625 25.625 C-53.73878906 25.55539062 -52.91507813 25.48578125 -52.06640625 25.4140625 C-51.38449219 25.27742188 -50.70257813 25.14078125 -50 25 C-49.67 24.34 -49.34 23.68 -49 23 C-48.2575 23.2475 -48.2575 23.2475 -47.5 23.5 C-43.96555911 24.20688818 -40.60309299 24.06005155 -37 24 C-37 23.34 -37 22.68 -37 22 C-35.84371094 21.96132813 -35.84371094 21.96132813 -34.6640625 21.921875 C-33.66117188 21.86515625 -32.65828125 21.8084375 -31.625 21.75 C-30.62726563 21.70359375 -29.62953125 21.6571875 -28.6015625 21.609375 C-27.74304688 21.40828125 -26.88453125 21.2071875 -26 21 C-24.86666774 19.11369334 -24.86666774 19.11369334 -24 17 C-22.109375 15.68359375 -22.109375 15.68359375 -19.75 14.4375 C-14.26189659 11.3449337 -9.53353288 7.57183977 -4.73535156 3.51928711 C-3.21540955 2.27131441 -1.61241103 1.12596193 0 0 Z " fill="#E7E7E7" transform="translate(245,285)"/>
<path d="M0 0 C1.12792969 0.60457031 2.25585938 1.20914063 3.41796875 1.83203125 C4.55878906 2.42371094 5.69960938 3.01539063 6.875 3.625 C9.60546875 5.64453125 9.60546875 5.64453125 10.61328125 8.17578125 C10.60169698 11.83640932 8.77944628 13.81177266 6.60546875 16.64453125 C1.63630239 16.13047956 -2.68479476 15.41068243 -7.39453125 13.64453125 C-9.63480419 16.52488217 -11.55625257 19.49319637 -13.39453125 22.64453125 C-16.63161663 22.38206487 -18.04140594 22.0090477 -20.33203125 19.64453125 C-21.89888693 15.22046814 -21.14850586 11.9377327 -19.39453125 7.64453125 C-14.53707993 0.15301012 -8.89067475 -3.55013135 0 0 Z " fill="#E6E6E5" transform="translate(309.39453125,196.35546875)"/>
<path d="M0 0 C2.28125 0.421875 2.28125 0.421875 4.28125 2.421875 C3.91519348 9.01089231 -1.22647902 13.09246581 -5.71875 17.421875 C-12.15492955 22.76788733 -19.80461063 27.64576953 -27.71875 30.421875 C-30.57421875 30.078125 -30.57421875 30.078125 -32.71875 29.421875 C-32.80624321 24.17228258 -32.80624321 24.17228258 -31.71875 21.421875 C-28.92580903 19.51656912 -25.88544197 18.55562891 -22.71875 17.421875 C-20.49131213 16.00209591 -20.49131213 16.00209591 -18.71875 14.421875 C-17.97109375 13.83921875 -17.2234375 13.2565625 -16.453125 12.65625 C-12.56935314 9.48265357 -9.03267947 5.96294129 -5.4375 2.46875 C-2.71875 0.421875 -2.71875 0.421875 0 0 Z " fill="#F8F8F7" transform="translate(377.71875,304.578125)"/>
<path d="M0 0 C0.11614929 4.0830942 0.18723457 8.16576377 0.25 12.25 C0.30027344 13.98830078 0.30027344 13.98830078 0.3515625 15.76171875 C0.36445313 16.87675781 0.37734375 17.99179688 0.390625 19.140625 C0.41157227 20.16704102 0.43251953 21.19345703 0.45410156 22.25097656 C-0.11658059 25.70575134 -1.26172785 26.8882709 -4 29 C-7.01811422 28.82246387 -7.83735215 28.16264785 -10 26 C-11.29854211 21.99616182 -10.86770253 19.73540507 -9 16 C-8.67 15.67 -8.34 15.34 -8 15 C-7.83333333 12.5 -7.83333333 12.5 -8 10 C-8.33 9.67 -8.66 9.34 -9 9 C-12.07638004 9.0090615 -15.14109531 9.13325058 -18.21484375 9.2578125 C-19.13394531 9.17273438 -20.05304688 9.08765625 -21 9 C-21.66 8.01 -22.32 7.02 -23 6 C-21.45867955 2.55469547 -20.50737856 1.22197812 -17 -0.3125 C-11.90838234 -1.46819908 -4.75313363 -2.37656681 0 0 Z " fill="#EEEEEE" transform="translate(204,156)"/>
<path d="M0 0 C1.03447266 0.26296875 1.03447266 0.26296875 2.08984375 0.53125 C2.78207031 0.6859375 3.47429687 0.840625 4.1875 1 C6.90443515 2.52286811 7.15213462 4.06992597 8.02734375 7.03125 C8.62615535 9.63800326 9.16798212 12.21682955 9.65234375 14.84375 C9.78640625 15.51728516 9.92046875 16.19082031 10.05859375 16.88476562 C10.95622279 21.67059395 11.26956681 26.16046026 11.02734375 31.03125 C9.52734375 33.03125 9.52734375 33.03125 8.02734375 34.03125 C4.62301486 33.09605747 3.31831578 32.5334963 1.515625 29.421875 C1.12761719 28.38546875 0.73960937 27.3490625 0.33984375 26.28125 C-0.25376953 24.74210937 -0.25376953 24.74210937 -0.859375 23.171875 C-1.22675781 22.13546875 -1.59414063 21.0990625 -1.97265625 20.03125 C-2.33359375 19.02964844 -2.69453125 18.02804688 -3.06640625 16.99609375 C-3.9595877 14.07400444 -4.46763673 11.37923659 -4.78515625 8.34375 C-4.89472656 7.41175781 -5.00429688 6.47976562 -5.1171875 5.51953125 C-4.97265625 3.03125 -4.97265625 3.03125 -3.73828125 1.16796875 C-1.97265625 0.03125 -1.97265625 0.03125 0 0 Z " fill="#E5E6E5" transform="translate(346.97265625,223.96875)"/>
<path d="M0 0 C4.6241768 0.51473501 7.14114162 2.32191685 10.75 5.1875 C11.30437744 5.62457275 11.85875488 6.06164551 12.42993164 6.51196289 C17.88755921 10.84192569 23.24777341 15.29491106 28.61230469 19.73925781 C33.19542699 23.53268561 37.81727608 27.26776039 42.5 30.9375 C43.06928223 31.38552979 43.63856445 31.83355957 44.22509766 32.29516602 C46.73157488 34.25991124 49.25581453 36.1859507 51.83203125 38.05859375 C52.65058594 38.65800781 53.46914063 39.25742187 54.3125 39.875 C55.00988281 40.36742187 55.70726562 40.85984375 56.42578125 41.3671875 C58.44662222 43.46324587 58.6672609 45.15483954 59 48 C54.15887017 47.56394235 51.47016687 45.20230105 48 42.0625 C46.85635662 41.05999621 45.71045744 40.06006089 44.5625 39.0625 C43.68464844 38.29873047 43.68464844 38.29873047 42.7890625 37.51953125 C38.94194332 34.25199989 34.89477425 31.24140996 30.875 28.19140625 C23.75314897 22.76293012 23.75314897 22.76293012 20.59375 19.5625 C17.73738286 16.74054692 14.7169069 14.38842275 11.5 12 C7.35773933 8.92453964 3.48110723 5.844805 0 2 C0 1.34 0 0.68 0 0 Z " fill="#BEBEBE" transform="translate(237,309)"/>
<path d="M0 0 C0.69867188 0.16757812 1.39734375 0.33515625 2.1171875 0.5078125 C3.02726562 0.71148437 3.93734375 0.91515625 4.875 1.125 C5.77992188 1.33382813 6.68484375 1.54265625 7.6171875 1.7578125 C8.40351563 1.83773438 9.18984375 1.91765625 10 2 C10.66 1.34 11.32 0.68 12 0 C12 0.66 12 1.32 12 2 C12.58467041 2.27078369 13.16934082 2.54156738 13.77172852 2.82055664 C15.98662164 3.99291872 17.72880576 5.27149861 19.65234375 6.87109375 C20.34013916 7.44021484 21.02793457 8.00933594 21.73657227 8.59570312 C22.46287842 9.20349609 23.18918457 9.81128906 23.9375 10.4375 C24.69023193 11.06205078 25.44296387 11.68660156 26.21850586 12.33007812 C31.39551417 16.63355882 36.53648271 20.97917232 41.64892578 25.35913086 C45.19696114 28.38104684 48.84710554 31.17082601 52.70703125 33.78125 C53.13371094 34.1834375 53.56039062 34.585625 54 35 C54 35.99 54 36.98 54 38 C52.37109375 38.765625 52.37109375 38.765625 50 39 C47.82545517 37.66652385 46.01364589 36.36091153 44.0625 34.75 C43.49257324 34.29616943 42.92264648 33.84233887 42.33544922 33.37475586 C37.81959375 29.75177151 33.42374907 25.98467751 29.04638672 22.19628906 C24.15455687 18.01090875 18.97701653 14.26009792 13.67236328 10.61547852 C12.06286895 9.48075312 10.52367101 8.24759784 9 7 C9 6.01 9 5.02 9 4 C6.69 4 4.38 4 2 4 C1.34 2.68 0.68 1.36 0 0 Z " fill="#D1D1D0" transform="translate(256,309)"/>
<path d="M0 0 C2.78808713 1.97206163 4.60496123 4.02677175 6.5625 6.8125 C4.75837357 10.07710973 3.72855307 11.70179795 0.5625 13.8125 C-5.58373118 14.55545102 -11.25302098 14.47957053 -16.4375 10.8125 C-18.8125 8.125 -18.8125 8.125 -20.4375 5.8125 C-18.96876861 1.16151727 -18.96876861 1.16151727 -16.6953125 -0.33203125 C-11.36510845 -2.35160683 -5.2957664 -1.82944657 0 0 Z " fill="#E3E5E3" transform="translate(210.4375,282.1875)"/>
<path d="M0 0 C0.04125 0.598125 0.0825 1.19625 0.125 1.8125 C0.87739901 4.35100832 0.87739901 4.35100832 4.0625 5.75 C5.5165625 6.36875 5.5165625 6.36875 7 7 C7.33 6.34 7.66 5.68 8 5 C8 5.99 8 6.98 8 8 C-1.44111669 11.93819393 -11.74776325 14.15253629 -21.81640625 11.1640625 C-24 10 -24 10 -26 7 C-25.9375 4.9375 -25.9375 4.9375 -25 3 C-20.8057235 0.79122701 -16.58383576 0.57942174 -11.9375 0.375 C-11.23044922 0.33632813 -10.52339844 0.29765625 -9.79492188 0.2578125 C-6.52390944 0.0858156 -3.27632253 0 0 0 Z M-2 3 C-1 5 -1 5 -1 5 Z " fill="#EAEBEA" transform="translate(350,299)"/>
<path d="M0 0 C2.92538601 1.07463159 4.6947478 2.15187316 7.0625 4.125 C8.71047236 4.83662443 10.37415408 5.51531953 12.0625 6.125 C10.0625 6.79166667 8.0625 7.45833333 6.0625 8.125 C6.0625 9.445 6.0625 10.765 6.0625 12.125 C6.7225 12.785 7.3825 13.445 8.0625 14.125 C7.0725 14.125 6.0825 14.125 5.0625 14.125 C5.0625 14.785 5.0625 15.445 5.0625 16.125 C4.340625 15.795 3.61875 15.465 2.875 15.125 C-0.1234348 14.05888985 -1.78918823 13.75461038 -4.9375 14.125 C-7.69141732 15.84530851 -7.69141732 15.84530851 -10.25 18.125 C-11.13300781 18.8675 -12.01601562 19.61 -12.92578125 20.375 C-13.58964844 20.9525 -14.25351563 21.53 -14.9375 22.125 C-15.5975 20.805 -16.2575 19.485 -16.9375 18.125 C-15.9475 17.795 -14.9575 17.465 -13.9375 17.125 C-13.958125 16.34125 -13.97875 15.5575 -14 14.75 C-13.9375 12.125 -13.9375 12.125 -12.9375 10.125 C-13.9275 9.795 -14.9175 9.465 -15.9375 9.125 C-15.9375 10.115 -15.9375 11.105 -15.9375 12.125 C-17.2575 11.795 -18.5775 11.465 -19.9375 11.125 C-6.52625664 0.20718275 -6.52625664 0.20718275 0 0 Z M-10.9375 8.125 C-11.2675 8.785 -11.5975 9.445 -11.9375 10.125 C-10.9475 9.795 -9.9575 9.465 -8.9375 9.125 C-9.5975 8.795 -10.2575 8.465 -10.9375 8.125 Z " fill="#E5E5E3" transform="translate(254.9375,227.875)"/>
<path d="M0 0 C0.33 0.66 0.66 1.32 1 2 C0.01 2.495 0.01 2.495 -1 3 C1.31 4.32 3.62 5.64 6 7 C6 6.01 6 5.02 6 4 C6.66 4 7.32 4 8 4 C8 4.66 8 5.32 8 6 C8.66 6.33 9.32 6.66 10 7 C-5.94994786 20.45776851 -5.94994786 20.45776851 -11.8125 21.5 C-14 21 -14 21 -15.8125 20 C-17.73618446 16.76011038 -17.18282384 13.7174181 -17 10 C-16.35933594 9.69707031 -15.71867188 9.39414063 -15.05859375 9.08203125 C-9.63340318 6.4543309 -4.79722458 3.65006218 0 0 Z " fill="#E1E3E0" transform="translate(214,225)"/>
<path d="M0 0 C-0.33 1.65 -0.66 3.3 -1 5 C-0.34 5 0.32 5 1 5 C0.34 6.32 -0.32 7.64 -1 9 C-1.66 9 -2.32 9 -3 9 C-3.33 9.99 -3.66 10.98 -4 12 C-4.66 12.474375 -5.32 12.94875 -6 13.4375 C-8.16816671 14.80116138 -8.16816671 14.80116138 -8.5 17 C-9 19 -9 19 -10.8125 20.75 C-13 22 -13 22 -17 22 C-17 21.34 -17 20.68 -17 20 C-17.66 20 -18.32 20 -19 20 C-19 20.99 -19 21.98 -19 23 C-22.35595828 22.40072174 -24.37801226 21.15377564 -27 19 C-26.01 18.67 -25.02 18.34 -24 18 C-23.85175781 17.38253906 -23.70351562 16.76507813 -23.55078125 16.12890625 C-22.81378064 13.28021595 -21.57224052 12.59664229 -19.1875 10.9375 C-18.15689453 10.20853516 -18.15689453 10.20853516 -17.10546875 9.46484375 C-16.41066406 8.98144531 -15.71585938 8.49804688 -15 8 C-14.29488281 7.44441406 -13.58976563 6.88882813 -12.86328125 6.31640625 C-11 5 -11 5 -9 5 C-9 4.34 -9 3.68 -9 3 C-5.63316085 0.56839395 -4.26649636 0 0 0 Z " fill="#E7E9E6" transform="translate(239,209)"/>
<path d="M0 0 C1.65 0 3.3 0 5 0 C4.34 0.66 3.68 1.32 3 2 C4.21236328 2.87011719 4.21236328 2.87011719 5.44921875 3.7578125 C10.90598318 7.7278384 16.02353216 11.46134836 20 17 C19.278125 16.731875 18.55625 16.46375 17.8125 16.1875 C16.4203125 16.0946875 16.4203125 16.0946875 15 16 C12.32016836 18.42969729 12.32016836 18.42969729 10 21 C7.89441606 19.2308289 5.79049842 17.4597399 3.6875 15.6875 C3.09259766 15.18798828 2.49769531 14.68847656 1.88476562 14.17382812 C1.30791016 13.68720703 0.73105469 13.20058594 0.13671875 12.69921875 C-0.65665894 12.03152466 -0.65665894 12.03152466 -1.46606445 11.3503418 C-3 10 -3 10 -4.51635742 8.31567383 C-5.00595947 7.88150146 -5.49556152 7.4473291 -6 7 C-8.94091587 7.18415432 -8.94091587 7.18415432 -12 8 C-13.423125 8.2784375 -13.423125 8.2784375 -14.875 8.5625 C-15.926875 8.7790625 -15.926875 8.7790625 -17 9 C-16.34 8.67 -15.68 8.34 -15 8 C-14.67 6.68 -14.34 5.36 -14 4 C-10.04 4 -6.08 4 -2 4 C-1.34 2.68 -0.68 1.36 0 0 Z " fill="#D8D8D6" transform="translate(286,294)"/>
<path d="M0 0 C2.5 1.6875 2.5 1.6875 4 4 C4.09545655 7.72280552 3.07443137 8.91793464 0.5625 11.6875 C-0.283125 12.450625 -1.12875 13.21375 -2 14 C-2.66 14.66 -3.32 15.32 -4 16 C-11.10659898 16.67681895 -11.10659898 16.67681895 -14.0625 14.4375 C-15.4367369 10.86448406 -15.04439933 8.65539765 -14 5 C-9.46954705 0.58571251 -6.31300147 -0.54422426 0 0 Z " fill="#DDDFDC" transform="translate(348,276)"/>
<path d="M0 0 C0.99 0.33 1.98 0.66 3 1 C0.6032108 5.50128703 -2.46937869 8.77101636 -6.0625 12.3125 C-6.60455078 12.86228516 -7.14660156 13.41207031 -7.70507812 13.97851562 C-11.74654503 18 -11.74654503 18 -14 18 C-14.18175781 18.63808594 -14.36351562 19.27617187 -14.55078125 19.93359375 C-14.80214844 20.75988281 -15.05351562 21.58617187 -15.3125 22.4375 C-15.55613281 23.26121094 -15.79976562 24.08492188 -16.05078125 24.93359375 C-16.36402344 25.61550781 -16.67726562 26.29742187 -17 27 C-17.99 27.33 -18.98 27.66 -20 28 C-20.28875 27.360625 -20.5775 26.72125 -20.875 26.0625 C-21.82823451 23.84793921 -21.82823451 23.84793921 -24 23 C-28.14503661 22.75212983 -28.14503661 22.75212983 -32 24 C-33.67654729 23.72057545 -35.34608154 23.39171753 -37 23 C-37 22.67 -37 22.34 -37 22 C-35.84371094 21.96132813 -35.84371094 21.96132813 -34.6640625 21.921875 C-33.66117188 21.86515625 -32.65828125 21.8084375 -31.625 21.75 C-30.62726563 21.70359375 -29.62953125 21.6571875 -28.6015625 21.609375 C-27.74304688 21.40828125 -26.88453125 21.2071875 -26 21 C-24.86666774 19.11369334 -24.86666774 19.11369334 -24 17 C-22.109375 15.68359375 -22.109375 15.68359375 -19.75 14.4375 C-14.26189659 11.3449337 -9.53353288 7.57183977 -4.73535156 3.51928711 C-3.21540955 2.27131441 -1.61241103 1.12596193 0 0 Z " fill="#B9BAB9" transform="translate(245,285)"/>
<path d="M0 0 C0 3.19633438 -0.33810135 4.34096216 -2 7 C-2.70125 7.433125 -3.4025 7.86625 -4.125 8.3125 C-4.74375 8.869375 -5.3625 9.42625 -6 10 C-5.87625 11.5159375 -5.87625 11.5159375 -5.75 13.0625 C-6.0868249 18.36749224 -8.4782928 20.52240806 -11.95703125 24.375 C-16.73643824 30.51603537 -17.42248751 35.96007707 -17.1875 43.4375 C-17.17396484 44.26443359 -17.16042969 45.09136719 -17.14648438 45.94335938 C-17.11146992 47.9625264 -17.05767562 49.98135318 -17 52 C-19.81771843 47.77342235 -19.42086579 43.55159827 -19.56640625 38.62890625 C-19.64546398 36.74870715 -19.81565188 34.87280927 -20 33 C-20.66 32.67 -21.32 32.34 -22 32 C-22.99 34.475 -22.99 34.475 -24 37 C-25 35 -25 35 -24.46875 33.22265625 C-18.55489541 20.03571437 -9.99532889 10.23643061 0 0 Z " fill="#D2D2D2" transform="translate(151,182)"/>
<path d="M0 0 C-0.99 0 -1.98 0 -3 0 C-2.33131686 3.11332248 -2.33131686 3.11332248 0.0625 4.1875 C1.0215625 4.5896875 1.0215625 4.5896875 2 5 C-1.06110696 5.98355849 -4.1241156 6.96106019 -7.1875 7.9375 C-8.05181641 8.21529297 -8.91613281 8.49308594 -9.80664062 8.77929688 C-11.06831055 9.18051758 -11.06831055 9.18051758 -12.35546875 9.58984375 C-13.12528076 9.83597412 -13.89509277 10.08210449 -14.68823242 10.33569336 C-18.92627914 11.55353316 -22.42712391 12.15158037 -26.8125 11.5625 C-27.60269531 11.46066406 -28.39289063 11.35882813 -29.20703125 11.25390625 C-29.79871094 11.17011719 -30.39039063 11.08632812 -31 11 C-31 10.67 -31 10.34 -31 10 C-28.36 10 -25.72 10 -23 10 C-22.773125 9.401875 -22.54625 8.80375 -22.3125 8.1875 C-19.65942109 3.76570182 -14.6308978 2.34017776 -9.9375 0.75 C-8.91527344 0.39421875 -7.89304688 0.0384375 -6.83984375 -0.328125 C-4.02094919 -0.99504366 -2.67006333 -0.99887261 0 0 Z " fill="#CFCFCE" transform="translate(224,144)"/>
<path d="M0 0 C5.17226615 4.6873662 8.98925493 10.31728181 13 16 C12.67 16.66 12.34 17.32 12 18 C11.34 18 10.68 18 10 18 C7.66924071 18.95865509 7.66924071 18.95865509 6 22 C4.89500435 20.27136297 3.79104086 18.54206612 2.6875 16.8125 C2.07261719 15.84957031 1.45773437 14.88664063 0.82421875 13.89453125 C-0.82123103 11.28365697 -2.42369665 8.6530398 -4 6 C-3.01 6 -2.02 6 -1 6 C-0.67 4.02 -0.34 2.04 0 0 Z " fill="#D4D4D4" transform="translate(363,184)"/>
<path d="M0 0 C6.75 1.625 6.75 1.625 9 5 C9.1953125 7.26171875 9.1953125 7.26171875 9.125 9.6875 C9.10695313 10.49574219 9.08890625 11.30398438 9.0703125 12.13671875 C9.03550781 13.05904297 9.03550781 13.05904297 9 14 C3.02968261 13.70876501 0.105466 10.97185616 -4 7 C-3.30621489 3.73988358 -2.54106009 2.20961747 0 0 Z " fill="#E2E3E1" transform="translate(301,309)"/>
<path d="M0 0 C1.98 0.66 3.96 1.32 6 2 C5.690625 2.9075 5.38125 3.815 5.0625 4.75 C4.28175145 7.13817205 3.60938416 9.56246334 3 12 C0.03 12 -2.94 12 -6 12 C-8.08954032 7.82091936 -8.16552619 7.19589427 -7 3 C-5.5459375 2.5359375 -5.5459375 2.5359375 -4.0625 2.0625 C-1.15934208 1.30476658 -1.15934208 1.30476658 0 0 Z " fill="#F5F5F3" transform="translate(181,217)"/>
<path d="M0 0 C0.33 0 0.66 0 1 0 C1.11614929 4.0830942 1.18723457 8.16576377 1.25 12.25 C1.30027344 13.98830078 1.30027344 13.98830078 1.3515625 15.76171875 C1.36445313 16.87675781 1.37734375 17.99179688 1.390625 19.140625 C1.41157227 20.16704102 1.43251953 21.19345703 1.45410156 22.25097656 C0.88341941 25.70575134 -0.26172785 26.8882709 -3 29 C-6.01811422 28.82246387 -6.83735215 28.16264785 -9 26 C-10.32382877 21.91819464 -9.77330739 19.82661068 -8 16 C-7.32204472 14.00379834 -6.65266469 12.00461299 -6 10 C-5.67 10 -5.34 10 -5 10 C-4.82164485 14.54805635 -5.00214565 17.8794254 -7 22 C-5.35 22.33 -3.7 22.66 -2 23 C-2 22.34 -2 21.68 -2 21 C-1.34 21 -0.68 21 0 21 C0 14.07 0 7.14 0 0 Z " fill="#CFCFCE" transform="translate(203,156)"/>
<path d="M0 0 C0.66 0.33 1.32 0.66 2 1 C1.01 1 0.02 1 -1 1 C-0.67 0.67 -0.34 0.34 0 0 Z M-5 1 C-3.68 1.33 -2.36 1.66 -1 2 C-1.59861742 4.35171131 -2.26924352 6.6859378 -3 9 C-3.99 9.495 -3.99 9.495 -5 10 C-5 11.65 -5 13.3 -5 15 C-5.598125 14.79375 -6.19625 14.5875 -6.8125 14.375 C-9.28450846 13.69328085 -9.28450846 13.69328085 -12 16 C-13.25664978 13.09399739 -14 11.20395416 -14 8 C-13.360625 7.71125 -12.72125 7.4225 -12.0625 7.125 C-9.84793921 6.17176549 -9.84793921 6.17176549 -9 4 C-7.68 4 -6.36 4 -5 4 C-5 3.01 -5 2.02 -5 1 Z " fill="#F5F5F3" transform="translate(244,236)"/>
<path d="M0 0 C0.66 0.33 1.32 0.66 2 1 C0.74915329 3.60593064 -0.62405314 6.1194871 -2.0625 8.625 C-3.07903244 10.39573392 -4.08689137 12.17378275 -5 14 C-7.64 11.69 -10.28 9.38 -13 7 C-12 3 -12 3 -10 1 C-7.375 1.375 -7.375 1.375 -5 2 C-5 2.66 -5 3.32 -5 4 C-3.35 2.68 -1.7 1.36 0 0 Z " fill="#D7D7D7" transform="translate(260,295)"/>
<path d="M0 0 C0.33 0.66 0.66 1.32 1 2 C1.66 2.33 2.32 2.66 3 3 C-5.67764408 7.62951235 -5.67764408 7.62951235 -10 8 C-13 7 -13 7 -14.1875 5.125 C-15 3 -15 3 -15 0 C-13.68 0.33 -12.36 0.66 -11 1 C-11 1.66 -11 2.32 -11 3 C-10.34 3 -9.68 3 -9 3 C-9.33 2.01 -9.66 1.02 -10 0 C-6.24527715 -2.59942351 -4.03404839 -1.7929104 0 0 Z " fill="#F9FAF9" transform="translate(364,298)"/>
<path d="M0 0 C4.91495806 0.45269351 8.02200064 2.95091175 11.75 5.9375 C12.33910156 6.39318359 12.92820313 6.84886719 13.53515625 7.31835938 C17.85474072 10.70948143 17.85474072 10.70948143 19 13 C18.34 13 17.68 13 17 13 C17 13.66 17 14.32 17 15 C12.21949544 13.50997261 9.25531083 10.85538953 5.6875 7.5 C5.13771484 7.00113281 4.58792969 6.50226563 4.02148438 5.98828125 C2.63673119 4.70501929 1.31280657 3.35677617 0 2 C0 1.34 0 0.68 0 0 Z " fill="#BBBBBB" transform="translate(237,309)"/>
<path d="M0 0 C1.65 0 3.3 0 5 0 C5.25061455 5.51352016 5.25061455 5.51352016 4.00439453 7.93261719 C2.86904931 10.2695407 2.76782345 11.74764151 2.8046875 14.328125 C2.81113281 15.12734375 2.81757813 15.9265625 2.82421875 16.75 C2.84935547 17.9875 2.84935547 17.9875 2.875 19.25 C2.88853516 20.51070312 2.88853516 20.51070312 2.90234375 21.796875 C2.92584183 23.86470604 2.96171092 25.93238995 3 28 C0.18228157 23.77342235 0.57913421 19.55159827 0.43359375 14.62890625 C0.35453602 12.74870715 0.18434812 10.87280927 0 9 C-0.66 8.67 -1.32 8.34 -2 8 C-2.66 9.65 -3.32 11.3 -4 13 C-4.33 12.34 -4.66 11.68 -5 11 C-4.2578125 8.90625 -4.2578125 8.90625 -3.125 6.5 C-2.75632813 5.7059375 -2.38765625 4.911875 -2.0078125 4.09375 C-1.3486219 2.72426876 -0.67970746 1.35941491 0 0 Z " fill="#B9B9B9" transform="translate(131,206)"/>
<path d="M0 0 C0.99 0.66 1.98 1.32 3 2 C1.625 3.5 1.625 3.5 0 5 C-0.66 5 -1.32 5 -2 5 C-2.18175781 5.63808594 -2.36351562 6.27617187 -2.55078125 6.93359375 C-2.80214844 7.75988281 -3.05351562 8.58617187 -3.3125 9.4375 C-3.55613281 10.26121094 -3.79976562 11.08492188 -4.05078125 11.93359375 C-4.36402344 12.61550781 -4.67726562 13.29742187 -5 14 C-5.99 14.33 -6.98 14.66 -8 15 C-8.28875 14.360625 -8.5775 13.72125 -8.875 13.0625 C-9.82823451 10.84793921 -9.82823451 10.84793921 -12 10 C-16.14503661 9.75212983 -16.14503661 9.75212983 -20 11 C-21.67654729 10.72057545 -23.34608154 10.39171753 -25 10 C-25 9.67 -25 9.34 -25 9 C-23.84371094 8.96132813 -23.84371094 8.96132813 -22.6640625 8.921875 C-21.66117188 8.86515625 -20.65828125 8.8084375 -19.625 8.75 C-18.62726563 8.70359375 -17.62953125 8.6571875 -16.6015625 8.609375 C-13.8473523 8.27839115 -13.8473523 8.27839115 -12.6484375 5.953125 C-12.43445313 5.30859375 -12.22046875 4.6640625 -12 4 C-11.34 4 -10.68 4 -10 4 C-9.67 5.65 -9.34 7.3 -9 9 C-8.01 9.33 -7.02 9.66 -6 10 C-5.7834375 8.576875 -5.7834375 8.576875 -5.5625 7.125 C-5 4 -5 4 -4 2 C-2.68 2.33 -1.36 2.66 0 3 C0 2.01 0 1.02 0 0 Z " fill="#C7CAC8" transform="translate(233,298)"/>
<path d="M0 0 C0 0.99 0 1.98 0 3 C-0.66 3 -1.32 3 -2 3 C-2.33 3.66 -2.66 4.32 -3 5 C-4.32 4.67 -5.64 4.34 -7 4 C-7.185625 5.9490625 -7.185625 5.9490625 -7.375 7.9375 C-7.5859375 10.15234375 -7.5859375 10.15234375 -8 12 C-8.99 12.495 -8.99 12.495 -10 13 C-11.32 12.01 -12.64 11.02 -14 10 C-13.875 7.75 -13.875 7.75 -13 5 C-4.12280702 -2.06140351 -4.12280702 -2.06140351 0 0 Z " fill="#DBDCDC" transform="translate(236,296)"/>
<path d="M0 0 C0.66 0.33 1.32 0.66 2 1 C1.61328982 3.35084834 1.32651409 4.67969817 -0.39868164 6.37207031 C-0.97996826 6.77006836 -1.56125488 7.16806641 -2.16015625 7.578125 C-2.78857422 8.01640625 -3.41699219 8.4546875 -4.06445312 8.90625 C-5.05348633 9.57140625 -5.05348633 9.57140625 -6.0625 10.25 C-6.72572266 10.70890625 -7.38894531 11.1678125 -8.07226562 11.640625 C-9.70802307 12.77035676 -11.35314234 13.88651173 -13 15 C-13.33 14.01 -13.66 13.02 -14 12 C-13.34 11.38125 -12.68 10.7625 -12 10.125 C-9.7715451 8.24362573 -9.7715451 8.24362573 -10 6 C-9.34 6 -8.68 6 -8 6 C-7.67 5.34 -7.34 4.68 -7 4 C-6.34 4 -5.68 4 -5 4 C-4.67 3.34 -4.34 2.68 -4 2 C-2.0625 0.8125 -2.0625 0.8125 0 0 Z " fill="#D7D9D6" transform="translate(244,212)"/>
<path d="M0 0 C5.02709507 1.57096721 9.02866469 4.61993049 13 8 C13 8.33 13 8.66 13 9 C11.35 9 9.7 9 8 9 C8 8.34 8 7.68 8 7 C7.01 7 6.02 7 5 7 C5 7.66 5 8.32 5 9 C4.34 9.66 3.68 10.32 3 11 C3.33 11.66 3.66 12.32 4 13 C0.125 11.25 0.125 11.25 -1 9 C-0.34 9 0.32 9 1 9 C0.67 6.03 0.34 3.06 0 0 Z " fill="#D3D4D3" transform="translate(309,314)"/>
<path d="M0 0 C0.66 0 1.32 0 2 0 C2 0.66 2 1.32 2 2 C2.99 2 3.98 2 5 2 C4.67 5.3 4.34 8.6 4 12 C0.5625 11.1875 0.5625 11.1875 -3 10 C-3.33 9.01 -3.66 8.02 -4 7 C-2.73339467 4.95708818 -1.40113616 2.95309888 0 1 C0 0.67 0 0.34 0 0 Z " fill="#F8F8F7" transform="translate(259,299)"/>
<path d="M0 0 C1.11375 0.3403125 1.11375 0.3403125 2.25 0.6875 C2.58 2.0075 2.91 3.3275 3.25 4.6875 C1 6.75 1 6.75 -1.75 8.6875 C-4.0625 8.4375 -4.0625 8.4375 -5.75 7.6875 C-6.08 6.0375 -6.41 4.3875 -6.75 2.6875 C-4.29511132 0.41445492 -3.41240272 -0.38777304 0 0 Z " fill="#DFDFDF" transform="translate(138.75,256.3125)"/>
<path d="M0 0 C0.33 0 0.66 0 1 0 C1.12117188 1.14339844 1.24234375 2.28679687 1.3671875 3.46484375 C1.53597321 4.95578417 1.70527047 6.44666673 1.875 7.9375 C1.95363281 8.69224609 2.03226562 9.44699219 2.11328125 10.22460938 C2.33883808 12.15919299 2.66258974 14.08176019 3 16 C3.66 16.33 4.32 16.66 5 17 C4.071875 17.12375 4.071875 17.12375 3.125 17.25 C0.81562433 17.81258459 0.81562433 17.81258459 -0.25 20.0625 C-0.4975 20.701875 -0.745 21.34125 -1 22 C-2.5625 20.375 -2.5625 20.375 -4 18 C-3.6875 14.75 -3.6875 14.75 -3 12 C-1.68 11.67 -0.36 11.34 1 11 C0.835 10.484375 0.67 9.96875 0.5 9.4375 C-0.15049 6.26636124 -0.0620734 3.22781666 0 0 Z " fill="#C5C5C5" transform="translate(125,271)"/>
<path d="M0 0 C0.99 0.33 1.98 0.66 3 1 C4.17755913 3.94389782 4.03348696 4.89953913 3 8 C2.65772583 9.33106622 2.32248257 10.66400079 2 12 C1.67 11.34 1.34 10.68 1 10 C0.01 10 -0.98 10 -2 10 C-2.33 9.34 -2.66 8.68 -3 8 C-3.99 8 -4.98 8 -6 8 C-4.55746343 4.63408134 -2.66735273 2.48952921 0 0 Z " fill="#F4F4F1" transform="translate(201,205)"/>
<path d="M0 0 C1.27310312 0.93441535 2.543388 1.87267111 3.8125 2.8125 C4.52019531 3.33457031 5.22789062 3.85664063 5.95703125 4.39453125 C7.78531393 5.83128877 9.39896688 7.31815763 11 9 C8.50935112 9.68707555 6.62113708 10 4 10 C1.95703125 8.6875 1.95703125 8.6875 -0.1875 7 C-0.90292969 6.443125 -1.61835938 5.88625 -2.35546875 5.3125 C-2.89816406 4.879375 -3.44085938 4.44625 -4 4 C-2.68 2.68 -1.36 1.36 0 0 Z " fill="#C8C8C8" transform="translate(276,317)"/>
<path d="M0 0 C0 3.71946442 -0.88871542 4.40514236 -3.3125 7.125 C-4.23482422 8.18074219 -4.23482422 8.18074219 -5.17578125 9.2578125 C-7 11 -7 11 -10 12 C-11 9 -11 9 -10.21484375 6.9921875 C-6.73316591 1.22133311 -6.73316591 1.22133311 -2.6875 0 C-1.800625 0 -0.91375 0 0 0 Z " fill="#DCDDDC" transform="translate(329,274)"/>
<path d="M0 0 C0.99 0 1.98 0 3 0 C3 0.66 3 1.32 3 2 C4.32 2 5.64 2 7 2 C6.67 4.31 6.34 6.62 6 9 C-0.64615385 7.52307692 -0.64615385 7.52307692 -2.4375 4.875 C-2.7159375 3.946875 -2.7159375 3.946875 -3 3 C-2.01 2.67 -1.02 2.34 0 2 C0 1.34 0 0.68 0 0 Z " fill="#F1F1F1" transform="translate(314,321)"/>
<path d="M0 0 C6.6 0.66 13.2 1.32 20 2 C19.67 2.99 19.34 3.98 19 5 C19 4.34 19 3.68 19 3 C16.69 3 14.38 3 12 3 C12 3.99 12 4.98 12 6 C11.34 6 10.68 6 10 6 C10 8.64 10 11.28 10 14 C8.14223235 10.86501708 7.79859524 8.62528568 8 5 C5.36 4.34 2.72 3.68 0 3 C0 2.01 0 1.02 0 0 Z " fill="#9C9D9B" transform="translate(301,165)"/>
<path d="M0 0 C1.31602523 0.61754259 2.62773556 1.24428742 3.9375 1.875 C4.66839844 2.22304687 5.39929688 2.57109375 6.15234375 2.9296875 C8 4 8 4 9 6 C7.68 6 6.36 6 5 6 C5 6.66 5 7.32 5 8 C4.34 8 3.68 8 3 8 C3.66 9.32 4.32 10.64 5 12 C1.62496331 10.8141763 -0.64722731 9.72426311 -3 7 C-2.01 6.34 -1.02 5.68 0 5 C0.25030977 2.41619823 0.25030977 2.41619823 0 0 Z " fill="#CDCDCB" transform="translate(330,157)"/>
<path d="M0 0 C2.31 0.33 4.62 0.66 7 1 C7.33 2.32 7.66 3.64 8 5 C7.34 4.34 6.68 3.68 6 3 C1.55762647 3.23145139 -0.64520486 5.08429711 -3.8125 8.0625 C-4.60269531 8.79597656 -5.39289063 9.52945312 -6.20703125 10.28515625 C-7.09455078 11.13400391 -7.09455078 11.13400391 -8 12 C-9 9 -9 9 -8.1875 6.9375 C-6.75430341 4.59912662 -4.93541186 2.93541186 -3 1 C-2.01 1.33 -1.02 1.66 0 2 C0 1.34 0 0.68 0 0 Z " fill="#D4D4D2" transform="translate(290,260)"/>
<path d="M0 0 C0.125 2.375 0.125 2.375 0 5 C-0.66 5.66 -1.32 6.32 -2 7 C-6.55555556 6.44444444 -6.55555556 6.44444444 -8 5 C-8.04063832 3.33382885 -8.042721 1.66611905 -8 0 C-4.71023192 -1.09658936 -3.28696233 -0.79953138 0 0 Z " fill="#C9CBCA" transform="translate(364,208)"/>
<path d="M0 0 C2.70931419 0.15481795 4.46584039 0.48172081 6.4453125 2.40234375 C7.67679642 3.89771708 8.8429837 5.4462924 10 7 C8.515 9.475 8.515 9.475 7 12 C3.76152296 8.11382755 1.59479327 4.78437981 0 0 Z " fill="#D2D4D1" transform="translate(207,282)"/>
<path d="M0 0 C0 0.99 0 1.98 0 3 C-6.40766041 4.83292414 -11.41276707 5.04559253 -18 4 C-18 3.67 -18 3.34 -18 3 C-15.36 3 -12.72 3 -10 3 C-9.62875 2.0409375 -9.62875 2.0409375 -9.25 1.0625 C-8 -1 -8 -1 -6.125 -1.875 C-3.52613603 -2.02787435 -2.1980747 -1.33454536 0 0 Z " fill="#C3C3C2" transform="translate(211,151)"/>
<path d="M0 0 C2.97 0.495 2.97 0.495 6 1 C6.12375 1.639375 6.2475 2.27875 6.375 2.9375 C6.684375 3.9584375 6.684375 3.9584375 7 5 C7.66 5.33 8.32 5.66 9 6 C9 6.99 9 7.98 9 9 C5.12270528 8.42558597 2.78480942 6.70745361 0 4 C0 2.68 0 1.36 0 0 Z " fill="#DADAD9" transform="translate(282,325)"/>
<path d="M0 0 C2.5 2.3125 2.5 2.3125 5 5 C5 5.99 5 6.98 5 8 C4.01 7.67 3.02 7.34 2 7 C1.67 8.65 1.34 10.3 1 12 C-0.65 10.35 -2.3 8.7 -4 7 C-3.01 6.67 -2.02 6.34 -1 6 C-0.67 4.02 -0.34 2.04 0 0 Z " fill="#D0D0D0" transform="translate(363,184)"/>
<path d="M0 0 C0.99 0.33 1.98 0.66 3 1 C2.67 1.99 2.34 2.98 2 4 C1.01 4 0.02 4 -1 4 C-2.2065625 5.2684375 -2.2065625 5.2684375 -3.4375 6.5625 C-4.283125 7.366875 -5.12875 8.17125 -6 9 C-8.3125 8.8125 -8.3125 8.8125 -10 8 C-10 8.99 -10 9.98 -10 11 C-11.32 10.67 -12.64 10.34 -14 10 C-10.902645 7.40221839 -7.68544358 5.00427047 -4.375 2.6875 C-3.61960938 2.15511719 -2.86421875 1.62273437 -2.0859375 1.07421875 C-1.39757812 0.71972656 -0.70921875 0.36523438 0 0 Z " fill="#CCCDCA" transform="translate(249,229)"/>
<path d="M0 0 C2.91517292 1.07401108 4.77810176 1.77810176 7 4 C6.625 7.625 6.625 7.625 6 11 C5.01 11 4.02 11 3 11 C2.67 10.01 2.34 9.02 2 8 C2.33 7.67 2.66 7.34 3 7 C2.34 6.67 1.68 6.34 1 6 C0.375 2.9375 0.375 2.9375 0 0 Z " fill="#EFF0F0" transform="translate(356,179)"/>
<path d="M0 0 C1.34173403 0.92543709 2.67320159 1.86577405 4 2.8125 C5.11375 3.59560547 5.11375 3.59560547 6.25 4.39453125 C6.8275 4.92433594 7.405 5.45414062 8 6 C8 9 8 9 7 12 C4.46073827 10.17328621 2.0949488 8.33122122 0 6 C-0.4375 2.625 -0.4375 2.625 0 0 Z " fill="#B9B9B9" transform="translate(274,336)"/>
<path d="M0 0 C2.0625 0.4375 2.0625 0.4375 4 1 C3.67 1.33 3.34 1.66 3 2 C5.97 2.495 5.97 2.495 9 3 C5.7106599 6.89847716 5.7106599 6.89847716 2.375 7.375 C0 7 0 7 -2 5 C-1.46428571 1.46428571 -1.46428571 1.46428571 0 0 Z M2 3 C3 5 3 5 3 5 Z " fill="#E2E4E3" transform="translate(249,297)"/>
<path d="M0 0 C2.9719385 1.12451727 5.33440687 2.22293791 8 4 C8 4.99 8 5.98 8 7 C6.3125 7.75 6.3125 7.75 4 8 C1.25 6.0625 1.25 6.0625 -1 4 C-0.67 2.68 -0.34 1.36 0 0 Z " fill="#C0C0C0" transform="translate(302,340)"/>
<path d="M0 0 C2.05078125 0.03255208 4.1015625 0.06510417 6.15234375 0.09765625 C6.48234375 0.75765625 6.81234375 1.41765625 7.15234375 2.09765625 C6.18296875 2.55140625 5.21359375 3.00515625 4.21484375 3.47265625 C1.08154793 4.75551846 1.08154793 4.75551846 0.15234375 7.09765625 C-1.16765625 6.76765625 -2.48765625 6.43765625 -3.84765625 6.09765625 C-2.77957394 0.14691194 -2.77957394 0.14691194 0 0 Z " fill="#F8F8F6" transform="translate(263.84765625,233.90234375)"/>
<path d="M0 0 C0 0.99 0 1.98 0 3 C-0.66 3.66 -1.32 4.32 -2 5 C-2.165 6.175625 -2.33 7.35125 -2.5 8.5625 C-2.665 9.696875 -2.83 10.83125 -3 12 C-3.99 12.495 -3.99 12.495 -5 13 C-8 11 -8 11 -10 8 C-9.36191406 7.50628906 -8.72382813 7.01257813 -8.06640625 6.50390625 C-7.24011719 5.86324219 -6.41382813 5.22257813 -5.5625 4.5625 C-4.73878906 3.92441406 -3.91507813 3.28632813 -3.06640625 2.62890625 C-1.12498733 1.16417803 -1.12498733 1.16417803 0 0 Z " fill="#CFCFCD" transform="translate(198,206)"/>
<path d="M0 0 C-0.3125 1.875 -0.3125 1.875 -1 4 C-4.08888522 6.05925681 -4.70935927 6.2390374 -8.1875 6.125 C-10.0746875 6.063125 -10.0746875 6.063125 -12 6 C-11.38125 5.7525 -10.7625 5.505 -10.125 5.25 C-7.62181694 3.77753937 -7.16954719 2.58971163 -6 0 C-3.50907189 -1.24546405 -2.58919267 -0.7767578 0 0 Z " fill="#D2D2D0" transform="translate(220,262)"/>
<path d="M0 0 C2 1.5625 2 1.5625 4 4 C4.375 7.625 4.375 7.625 4 11 C3.34 11.66 2.68 12.32 2 13 C2 12.34 2 11.68 2 11 C1.01 11.33 0.02 11.66 -1 12 C-0.34 10.35 0.32 8.7 1 7 C0.34 7 -0.32 7 -1 7 C-1 6.01 -1 5.02 -1 4 C-0.34 4 0.32 4 1 4 C0.67 2.68 0.34 1.36 0 0 Z " fill="#CED0CE" transform="translate(171,250)"/>
<path d="M0 0 C0 0.66 0 1.32 0 2 C0.66 2 1.32 2 2 2 C2 2.99 2 3.98 2 5 C1.401875 5.12375 0.80375 5.2475 0.1875 5.375 C-2.26231348 5.95475985 -2.26231348 5.95475985 -5 8 C-5.66 7.67 -6.32 7.34 -7 7 C-6.22006468 2.47637516 -4.81844319 0 0 0 Z " fill="#E1E1E1" transform="translate(159,177)"/>
<path d="M0 0 C1.44010481 0.25662245 2.8770687 0.53090821 4.3125 0.8125 C5.11300781 0.96332031 5.91351563 1.11414063 6.73828125 1.26953125 C9.28415813 2.09177473 10.40402551 2.86686904 12 5 C12 5.99 12 6.98 12 8 C11.01 7.67 10.02 7.34 9 7 C9 6.01 9 5.02 9 4 C6.69 4 4.38 4 2 4 C1.34 2.68 0.68 1.36 0 0 Z M11 0 C11.33 0.66 11.66 1.32 12 2 C12.99 2.33 13.98 2.66 15 3 C14.01 3.495 14.01 3.495 13 4 C12.01 3.34 11.02 2.68 10 2 C10.33 1.34 10.66 0.68 11 0 Z " fill="#B2B2B1" transform="translate(256,309)"/>
<path d="M0 0 C0.66 0.33 1.32 0.66 2 1 C1.01 2.485 1.01 2.485 0 4 C1.32 4.66 2.64 5.32 4 6 C2.71034824 7.37562854 1.37310707 8.70766393 0 10 C-0.66 10 -1.32 10 -2 10 C-2.66 8.68 -3.32 7.36 -4 6 C-3.67 5.67 -3.34 5.34 -3 5 C-3.66 4.67 -4.32 4.34 -5 4 C-3.35 2.68 -1.7 1.36 0 0 Z " fill="#CBCBCB" transform="translate(169,167)"/>
<path d="M0 0 C2.31 0.66 4.62 1.32 7 2 C7.33 3.65 7.66 5.3 8 7 C4 7 4 7 1.75 5.75 C1.1725 5.1725 0.595 4.595 0 4 C0 2.68 0 1.36 0 0 Z " fill="#D1D1D1" transform="translate(267,333)"/>
<path d="M0 0 C1.98 0.66 3.96 1.32 6 2 C5.67 3.65 5.34 5.3 5 7 C1.64404172 6.40072174 -0.37801226 5.15377564 -3 3 C-2.01 2.67 -1.02 2.34 0 2 C0 1.34 0 0.68 0 0 Z " fill="#F6F8F5" transform="translate(215,225)"/>
<path d="M0 0 C0 0.66 0 1.32 0 2 C1.32 1.67 2.64 1.34 4 1 C3.34 2.32 2.68 3.64 2 5 C-3.625 5.25 -3.625 5.25 -7 3 C-7 2.34 -7 1.68 -7 1 C-4.50935112 0.31292445 -2.62113708 0 0 0 Z " fill="#CBCCC9" transform="translate(273,218)"/>
<path d="M0 0 C0.66 0 1.32 0 2 0 C2.12375 0.78375 2.2475 1.5675 2.375 2.375 C2.79117993 5.14057822 2.79117993 5.14057822 5 7 C4.22914063 6.91621094 3.45828125 6.83242188 2.6640625 6.74609375 C1.66117188 6.64425781 0.65828125 6.54242188 -0.375 6.4375 C-1.37273437 6.33308594 -2.37046875 6.22867187 -3.3984375 6.12109375 C-5.984037 5.78855292 -5.984037 5.78855292 -8 7 C-9.67654729 6.72057545 -11.34608154 6.39171753 -13 6 C-13 5.67 -13 5.34 -13 5 C-12.22914063 4.97421875 -11.45828125 4.9484375 -10.6640625 4.921875 C-9.66117188 4.86515625 -8.65828125 4.8084375 -7.625 4.75 C-6.62726563 4.70359375 -5.62953125 4.6571875 -4.6015625 4.609375 C-1.8473523 4.27839115 -1.8473523 4.27839115 -0.6484375 1.953125 C-0.43445313 1.30859375 -0.22046875 0.6640625 0 0 Z " fill="#D2D3D2" transform="translate(221,302)"/>
<path d="M0 0 C0.74056641 0.00902344 1.48113281 0.01804687 2.24414062 0.02734375 C4.05873467 0.05075787 5.87316071 0.08662385 7.6875 0.125 C7.6875 0.455 7.6875 0.785 7.6875 1.125 C6.63949219 1.18558594 5.59148437 1.24617188 4.51171875 1.30859375 C3.13279952 1.39301738 1.75389395 1.47766447 0.375 1.5625 C-0.66043945 1.62147461 -0.66043945 1.62147461 -1.71679688 1.68164062 C-4.78411535 1.87427415 -7.38218152 2.14822717 -10.3125 3.125 C-10.6425 5.105 -10.9725 7.085 -11.3125 9.125 C-12.875 7.875 -12.875 7.875 -14.3125 6.125 C-14.3125 4.0625 -14.3125 4.0625 -13.3125 2.125 C-9.00168371 -0.22410639 -4.77931726 -0.11104759 0 0 Z " fill="#8B8D8B" transform="translate(338.3125,299.875)"/>
<path d="M0 0 C0 1.98 0 3.96 0 6 C-2.90600261 7.25664978 -4.79604584 8 -8 8 C-7.875 6.25 -7.875 6.25 -7 4 C-1.66666667 0 -1.66666667 0 0 0 Z " fill="#F9FAF7" transform="translate(225,249)"/>
<path d="M0 0 C2.5625 0.3125 2.5625 0.3125 4.4375 1.5625 C5.5625 3.3125 5.5625 3.3125 5.25 5.5 C4.9096875 6.3971875 4.9096875 6.3971875 4.5625 7.3125 C4.2325 6.3225 3.9025 5.3325 3.5625 4.3125 C0.5925 3.8175 0.5925 3.8175 -2.4375 3.3125 C-2.7675 7.2725 -3.0975 11.2325 -3.4375 15.3125 C-3.7675 15.3125 -4.0975 15.3125 -4.4375 15.3125 C-4.49136629 13.18777424 -4.53023071 11.06266348 -4.5625 8.9375 C-4.58570313 7.75414062 -4.60890625 6.57078125 -4.6328125 5.3515625 C-4.39090319 1.5874536 -3.81289573 0.48883279 0 0 Z " fill="#A3A3A3" transform="translate(365.4375,214.6875)"/>
<path d="M0 0 C0 3.19633438 -0.33810135 4.34096216 -2 7 C-3.32848691 8.00642948 -4.66150329 9.00692179 -6 10 C-6.33 10.99 -6.66 11.98 -7 13 C-7.99 13.33 -8.98 13.66 -10 14 C-9.41103058 10.40163887 -8.00101444 8.54164989 -5.5625 5.875 C-4.94503906 5.19179687 -4.32757813 4.50859375 -3.69140625 3.8046875 C-2.48303513 2.51538621 -1.24949161 1.24949161 0 0 Z " fill="#C4C4C4" transform="translate(151,182)"/>
<path d="M0 0 C3.96 0 7.92 0 12 0 C11.67 1.32 11.34 2.64 11 4 C11.185625 4.680625 11.37125 5.36125 11.5625 6.0625 C11.706875 6.701875 11.85125 7.34125 12 8 C11.01 9.485 11.01 9.485 10 11 C8.19588033 8.24075815 7.9872755 7.11027897 8.375 3.75 C8.58125 2.8425 8.7875 1.935 9 1 C6.03 1 3.06 1 0 1 C0 0.67 0 0.34 0 0 Z " fill="#ADAFAB" transform="translate(255,208)"/>
<path d="M0 0 C0.33 0 0.66 0 1 0 C1.04898437 0.60328125 1.09796875 1.2065625 1.1484375 1.828125 C1.22320312 2.62734375 1.29796875 3.4265625 1.375 4.25 C1.44460938 5.03890625 1.51421875 5.8278125 1.5859375 6.640625 C2.01575922 9.0897978 2.88165039 10.8005791 4 13 C3.625 15.25 3.625 15.25 3 17 C3.66 17.33 4.32 17.66 5 18 C4.34 18.66 3.68 19.32 3 20 C0.28074456 13.73388963 -0.95177973 7.85933285 -1 1 C-0.67 0.67 -0.34 0.34 0 0 Z " fill="#BABCBA" transform="translate(343,226)"/>
<path d="M0 0 C0.33 0 0.66 0 1 0 C1 4.29 1 8.58 1 13 C1.66 13 2.32 13 3 13 C3.33 14.98 3.66 16.96 4 19 C1.30371409 18.01136183 0.20308889 17.37411112 -1.1875 14.8125 C-2.17689696 11.38766437 -1.8134798 9.1681479 -1.125 5.6875 C-0.92132813 4.61886719 -0.71765625 3.55023438 -0.5078125 2.44921875 C-0.34023438 1.64097656 -0.17265625 0.83273437 0 0 Z " fill="#A9AAAA" transform="translate(362,261)"/>
<path d="M0 0 C1.2065625 0.0309375 1.2065625 0.0309375 2.4375 0.0625 C3 2 3 2 3.4375 4.0625 C2.4375 5.0625 2.4375 5.0625 -0.125 5.125 C-1.3315625 5.0940625 -1.3315625 5.0940625 -2.5625 5.0625 C-3.125 3.125 -3.125 3.125 -3.5625 1.0625 C-2.5625 0.0625 -2.5625 0.0625 0 0 Z " fill="#B8B8B8" transform="translate(318.5625,342.9375)"/>
<path d="M0 0 C1.65 0.33 3.3 0.66 5 1 C2.42215154 3.64752004 0.08351902 5.94432065 -3 8 C-3.33 6.35 -3.66 4.7 -4 3 C-3.01 3 -2.02 3 -1 3 C-0.67 2.01 -0.34 1.02 0 0 Z " fill="#D3D4D2" transform="translate(242,242)"/>
<path d="M0 0 C1.65 1.32 3.3 2.64 5 4 C4.01 4.495 4.01 4.495 3 5 C3 5.99 3 6.98 3 8 C-0.65316671 6.75023244 -1.78065836 6.32901247 -4 3 C-3.01 2.67 -2.02 2.34 -1 2 C-0.67 1.34 -0.34 0.68 0 0 Z " fill="#BCBCBC" transform="translate(276,317)"/>
<path d="M0 0 C0.763125 0.20625 1.52625 0.4125 2.3125 0.625 C2.6425 1.945 2.9725 3.265 3.3125 4.625 C2.3225 5.12 2.3225 5.12 1.3125 5.625 C1.3125 4.305 1.3125 2.985 1.3125 1.625 C-3.01121893 3.65133069 -3.01121893 3.65133069 -6.6875 6.625 C-6.375 4.25 -6.375 4.25 -5.6875 1.625 C-2.6875 -0.375 -2.6875 -0.375 0 0 Z " fill="#ACACAC" transform="translate(138.6875,256.375)"/>
<path d="M0 0 C2 1 2 1 4 4 C-0.625 7 -0.625 7 -4 7 C-3.43628586 3.73045798 -2.50037734 2.17424117 0 0 Z " fill="#F5F5F4" transform="translate(301,309)"/>
<path d="M0 0 C1.65 0.33 3.3 0.66 5 1 C5 2.65 5 4.3 5 6 C4.01 6.495 4.01 6.495 3 7 C1.68 6.01 0.36 5.02 -1 4 C-0.67 2.68 -0.34 1.36 0 0 Z " fill="#F7F7F7" transform="translate(223,302)"/>
<path d="M0 0 C-0.3125 2.375 -0.3125 2.375 -1 5 C-1.99 5.66 -2.98 6.32 -4 7 C-4.66 6.01 -5.32 5.02 -6 4 C-6.99 4 -7.98 4 -9 4 C-6.10130984 1.70103884 -3.84906588 0 0 0 Z " fill="#C4C6C5" transform="translate(240,292)"/>
<path d="M0 0 C2.97 0.495 2.97 0.495 6 1 C6 1.99 6 2.98 6 4 C4.1875 5.0625 4.1875 5.0625 2 6 C1.01 5.67 0.02 5.34 -1 5 C-0.67 3.35 -0.34 1.7 0 0 Z " fill="#C5C5C5" transform="translate(373,282)"/>
<path d="M0 0 C0.66 0.33 1.32 0.66 2 1 C2 1.66 2 2.32 2 3 C3.65 3 5.3 3 7 3 C5.19873295 5.27528469 4.3633843 5.94682181 1.4375 6.375 C0.2309375 6.189375 0.2309375 6.189375 -1 6 C-1.66 5.01 -2.32 4.02 -3 3 C-2.01 3 -1.02 3 0 3 C0 2.01 0 1.02 0 0 Z " fill="#C9CCC9" transform="translate(201,240)"/>
<path d="M0 0 C0.66 0.33 1.32 0.66 2 1 C0.375 3 0.375 3 -2 5 C-5.25 5.25 -5.25 5.25 -8 5 C-8.66 3.68 -9.32 2.36 -10 1 C-7.525 1.495 -7.525 1.495 -5 2 C-5 2.66 -5 3.32 -5 4 C-3.35 2.68 -1.7 1.36 0 0 Z " fill="#B6B8B6" transform="translate(260,295)"/>
<path d="M0 0 C2.56687367 3.8503105 1.83288724 5.58569763 1 10 C-0.5625 8.25 -0.5625 8.25 -2 6 C-1.72330471 3.64809002 -1.05656463 2.11312926 0 0 Z " fill="#BFC0BE" transform="translate(309,258)"/>
<path d="M0 0 C2.475 0.495 2.475 0.495 5 1 C5 2.32 5 3.64 5 5 C3.68 4.67 2.36 4.34 1 4 C0.67 2.68 0.34 1.36 0 0 Z " fill="#CDCDCD" transform="translate(254,322)"/>
<path d="M0 0 C1.32 0.33 2.64 0.66 4 1 C4 2.32 4 3.64 4 5 C2.35 5.33 0.7 5.66 -1 6 C-1.33 5.01 -1.66 4.02 -2 3 C-1.34 3 -0.68 3 0 3 C0 2.01 0 1.02 0 0 Z " fill="#F3F4F4" transform="translate(350,174)"/>
<path d="M0 0 C1.32 0.66 2.64 1.32 4 2 C4 3.32 4 4.64 4 6 C2.35 6 0.7 6 -1 6 C-1.625 4.125 -1.625 4.125 -2 2 C-1.34 1.34 -0.68 0.68 0 0 Z " fill="#E9E9E9" transform="translate(171,167)"/>
<path d="M0 0 C2.64 0.33 5.28 0.66 8 1 C6.66666667 1.66666667 5.33333333 2.33333333 4 3 C3.319375 3.391875 2.63875 3.78375 1.9375 4.1875 C0 5 0 5 -3 4 C-2.34 4 -1.68 4 -1 4 C-0.67 2.68 -0.34 1.36 0 0 Z " fill="#AFAFAD" transform="translate(272,298)"/>
<path d="M0 0 C2.31 0.33 4.62 0.66 7 1 C7.33 2.32 7.66 3.64 8 5 C7.34 4.34 6.68 3.68 6 3 C2.55834679 3.35299007 0.93127462 4.04581692 -2 6 C-1.49396008 3.83125748 -1.00016187 2.00032373 0 0 Z " fill="#AAABA9" transform="translate(290,260)"/>
<path d="M0 0 C2.875 -0.1875 2.875 -0.1875 6 0 C6.66 0.99 7.32 1.98 8 3 C6.68 2.67 5.36 2.34 4 2 C3.67 2.99 3.34 3.98 3 5 C1.5 3.625 1.5 3.625 0 2 C0 1.34 0 0.68 0 0 Z " fill="#B6B6B6" transform="translate(263,331)"/>
<path d="M0 0 C1.67542976 0.28604898 3.34385343 0.61781233 5 1 C3.35 2.65 1.7 4.3 0 6 C-0.66 5.01 -1.32 4.02 -2 3 C-1 1 -1 1 0 0 Z " fill="#D0D2D2" transform="translate(252,265)"/>
<path d="M0 0 C0.66 0 1.32 0 2 0 C4 3 4 3 3.625 5.1875 C3.41875 5.785625 3.2125 6.38375 3 7 C2.01 6.67 1.02 6.34 0 6 C0 4.02 0 2.04 0 0 Z " fill="#CFCFCD" transform="translate(263,305)"/>
<path d="M0 0 C0.66 0.33 1.32 0.66 2 1 C1.38461538 6.53846154 1.38461538 6.53846154 -0.5625 8.875 C-1.036875 9.24625 -1.51125 9.6175 -2 10 C-2 8.02 -2 6.04 -2 4 C-1.01 4 -0.02 4 1 4 C0.67 2.68 0.34 1.36 0 0 Z " fill="#B0B0AD" transform="translate(318,202)"/>
<path d="M0 0 C1.9375 0.3125 1.9375 0.3125 4 1 C4.33 1.99 4.66 2.98 5 4 C4.01 4.66 3.02 5.32 2 6 C2 5.34 2 4.68 2 4 C1.34 4 0.68 4 0 4 C0 2.68 0 1.36 0 0 Z " fill="#F8F8F8" transform="translate(365,191)"/>
<path d="M0 0 C0.99 0.33 1.98 0.66 3 1 C2.01 3.31 1.02 5.62 0 8 C-0.66 8 -1.32 8 -2 8 C-2.33 6.68 -2.66 5.36 -3 4 C-2.01 3.67 -1.02 3.34 0 3 C0 2.01 0 1.02 0 0 Z " fill="#C1C1C1" transform="translate(227,305)"/>
<path d="M0 0 C2 3.75 2 3.75 2 6 C0.68 6.33 -0.64 6.66 -2 7 C-2.125 4.625 -2.125 4.625 -2 2 C-1.34 1.34 -0.68 0.68 0 0 Z " fill="#FAFAF8" transform="translate(291,301)"/>
<path d="M0 0 C0.66 0.33 1.32 0.66 2 1 C-0.83430453 4.2542015 -2.68607774 5.5206753 -7 6 C-2.25 1.125 -2.25 1.125 0 0 Z " fill="#B5B5B4" transform="translate(289,251)"/>
<path d="M0 0 C0.99 0 1.98 0 3 0 C3.33 1.32 3.66 2.64 4 4 C2.68 4.33 1.36 4.66 0 5 C-0.5625 3.0625 -0.5625 3.0625 -1 1 C-0.67 0.67 -0.34 0.34 0 0 Z " fill="#D1D1D1" transform="translate(282,344)"/>
<path d="M0 0 C0.33 0.99 0.66 1.98 1 3 C-3.41225737 4.47075246 -6.48281619 5.36884358 -11 4 C-11 3.67 -11 3.34 -11 3 C-5.555 2.505 -5.555 2.505 0 2 C0 1.34 0 0.68 0 0 Z " fill="#929292" transform="translate(219,304)"/>
<path d="M0 0 C-0.33 0.99 -0.66 1.98 -1 3 C-1.66 3 -2.32 3 -3 3 C-3.33 3.99 -3.66 4.98 -4 6 C-4.33 5.34 -4.66 4.68 -5 4 C-5.66 3.67 -6.32 3.34 -7 3 C-2.25 0 -2.25 0 0 0 Z " fill="#CACBCA" transform="translate(275,288)"/>
<path d="M0 0 C0.66 0.66 1.32 1.32 2 2 C1.34 3.65 0.68 5.3 0 7 C-0.99 6.01 -1.98 5.02 -3 4 C-2.67 3.01 -2.34 2.02 -2 1 C-1.34 0.67 -0.68 0.34 0 0 Z " fill="#C5C5C5" transform="translate(157,289)"/>
<path d="M0 0 C3.77545388 1.09068668 6.47043472 1.9083091 9 5 C3.46153846 4.50769231 3.46153846 4.50769231 1.125 1.9375 C0.75375 1.298125 0.3825 0.65875 0 0 Z " fill="#B2B4B2" transform="translate(321,191)"/>
<path d="M0 0 C2.97 1.98 2.97 1.98 6 4 C5.67 4.66 5.34 5.32 5 6 C3.35 5.67 1.7 5.34 0 5 C0 3.35 0 1.7 0 0 Z " fill="#C2C3C2" transform="translate(354,175)"/>
<path d="M0 0 C0.33 0 0.66 0 1 0 C1.49230769 6.4 1.49230769 6.4 -1 9.4375 C-1.99 10.2109375 -1.99 10.2109375 -3 11 C-2.32829194 7.1936543 -1.27253436 3.64793184 0 0 Z " fill="#AEAEAE" transform="translate(197,166)"/>
</svg>
